<?xml version="1.0" encoding="UTF-8"?>
<svg id="Layer_2" data-name="Layer 2" xmlns="http://www.w3.org/2000/svg" viewBox="0 0 15 15">
  <defs>
    <style>
      .cls-1 {
        fill: #fff;
      }

      .cls-2 {
        fill: #262626;
      }
    </style>
  </defs>
  <g id="Layer_1-2" data-name="Layer 1">
    <g>
      <rect class="cls-1" width="15" height="15" rx=".84" ry=".84"/>
      <g>
        <path class="cls-2" d="M13.77,4.93c-.1,0-.18.08-.18.18v7.4c0,.1-.08.18-.18.18h-5.01c-.1,0-.18.08-.18.18s.08.18.18.18h5.01c.3,0,.54-.24.54-.54v-7.4c0-.1-.08-.18-.18-.18Z"/>
        <path class="cls-2" d="M13.41,1.21H1.59c-.3,0-.54.24-.54.54v10.76c0,.3.24.54.54.54h.48c.1,0,.18-.08.18-.18s-.08-.18-.18-.18h-.48c-.1,0-.18-.08-.18-.18V1.75c0-.1.08-.18.18-.18h11.82c.1,0,.18.08.18.18v2.21c0,.1.08.18.18.18s.18-.08.18-.18V1.75c0-.3-.24-.54-.54-.54Z"/>
        <path class="cls-2" d="M8.29,8.95c0-.28-.23-.51-.51-.51H2.57c-.28,0-.51.23-.51.51s.23.51.51.51h.32l-.42,3.88c-.01.12.02.23.1.31.08.09.21.14.34.14h4.63c.13,0,.25-.05.34-.14.08-.09.11-.2.1-.31l-.42-3.88h.21c.28,0,.51-.23.51-.51ZM2.57,9.08c-.08,0-.14-.06-.14-.14s.06-.14.14-.14h.39l-.03.28h-.36ZM2.92,13.43s-.05,0-.06-.02c0,0-.01-.02,0-.03l.49-4.57h2.07l.23,4.62h-2.72ZM6.01,13.43l-.23-4.62h.46l.37,4.62h-.59ZM7.62,13.37s0,.02,0,.03c-.01.01-.04.02-.06.02h-.59l-.37-4.62h.54l.49,4.57ZM7.53,9.08l-.03-.28h.28c.08,0,.14.06.14.14s-.06.14-.14.14h-.25Z"/>
        <path class="cls-2" d="M10.53,8.44h-.94c-.2,0-.36.16-.36.36v.94c0,.2.16.36.36.36h.94c.2,0,.36-.16.36-.36v-.94c0-.2-.16-.36-.36-.36ZM10.52,9.73h-.92v-.92h.92v.92Z"/>
        <path class="cls-2" d="M12.57,8.44h-.94c-.2,0-.36.16-.36.36v.94c0,.2.16.36.36.36h.94c.2,0,.36-.16.36-.36v-.94c0-.2-.16-.36-.36-.36ZM12.56,9.73h-.92v-.92h.92v.92Z"/>
        <path class="cls-2" d="M10.53,10.44h-.94c-.2,0-.36.16-.36.36v.94c0,.2.16.36.36.36h.94c.2,0,.36-.16.36-.36v-.94c0-.2-.16-.36-.36-.36ZM10.52,11.74h-.92v-.92h.92v.92Z"/>
        <path class="cls-2" d="M12.57,10.44h-.94c-.2,0-.36.16-.36.36v.94c0,.2.16.36.36.36h.94c.2,0,.36-.16.36-.36v-.94c0-.2-.16-.36-.36-.36ZM12.56,11.74h-.92v-.92h.92v.92Z"/>
        <path class="cls-2" d="M4.66,6.3l-.91-2.97c-.05-.17-.27-.25-.5-.25s-.44.08-.5.25l-.91,2.97s0,.04,0,.05c0,.18.28.31.49.31.12,0,.22-.04.25-.14l.17-.61h1.03l.17.61c.03.1.13.14.25.14.21,0,.49-.13.49-.31,0-.01,0-.03,0-.05ZM2.9,5.33l.36-1.3.36,1.3h-.71Z"/>
        <path class="cls-2" d="M8.22,3.11h-2.1c-.16,0-.23.18-.23.34,0,.18.08.35.23.35h.67v2.64c0,.16.19.23.38.23s.38-.08.38-.23v-2.64h.67c.15,0,.23-.16.23-.35,0-.16-.07-.34-.23-.34Z"/>
        <path class="cls-2" d="M12.78,3.11c-.27,0-.39.03-.59.38l-.5.88-.5-.88c-.2-.35-.32-.38-.59-.38-.19,0-.38.1-.38.38v2.94c0,.16.19.23.38.23s.38-.08.38-.23v-1.87l.46.85c.06.11.15.14.24.14.09,0,.19-.03.25-.14l.47-.8v1.83c0,.16.19.23.38.23s.38-.08.38-.23v-2.94c0-.28-.18-.38-.38-.38Z"/>
        <path class="cls-2" d="M13.16,2.5H1.84c-.08,0-.14-.06-.14-.14s.06-.14.14-.14h11.32c.08,0,.14.06.14.14s-.06.14-.14.14Z"/>
        <path class="cls-2" d="M13.16,7.43H1.84c-.08,0-.14-.06-.14-.14s.06-.14.14-.14h11.32c.08,0,.14.06.14.14s-.06.14-.14.14Z"/>
      </g>
    </g>
  </g>
</svg>