<?xml version="1.0" encoding="UTF-8"?>
<svg id="Layer_2" data-name="Layer 2" xmlns="http://www.w3.org/2000/svg" viewBox="0 0 15 15">
  <defs>
    <style>
      .cls-1 {
        fill: #fff;
      }

      .cls-2 {
        fill: #262626;
      }
    </style>
  </defs>
  <g id="Layer_1-2" data-name="Layer 1">
    <g>
      <rect class="cls-1" width="15" height="15" rx=".84" ry=".84"/>
      <path class="cls-2" d="M7.77,9.16h-1.98c-.1,0-.19.05-.24.13s-.06.19-.02.28l.53,1.2c.05.11.15.17.27.17h2.35c.12,0,.22-.07.27-.17l.53-1.2c.04-.09.03-.19-.02-.28-.05-.08-.14-.13-.24-.13h-.68c-.09,0-.16.07-.16.16s.07.16.16.16h.63l-.5,1.14h-2.3l-.5-1.14h1.93c.09,0,.16-.07.16-.16s-.07-.16-.16-.16h0ZM10.29,3.7c0-.09-.07-.16-.16-.16s-.16.07-.16.16.07.16.16.16.16-.07.16-.16ZM12.7,4.18h-1.04v-.48c0-.45-.36-.81-.81-.81h-.56v-.31c0-.33-.27-.59-.59-.59h-4.39c-.33,0-.59.27-.59.59v.31h-.56c-.45,0-.81.36-.81.81v.48h-1.04c-.17,0-.31.14-.31.31v1.98c0,.17.14.31.31.31h.34c.17,0,.31-.14.31-.31v-1.97h.39v1.32c0,.09.07.16.16.16s.16-.07.16-.16v-2.13c0-.27.22-.48.48-.48h6.69c.27,0,.48.22.48.48v5.98h-1.1c-.12,0-.24.07-.29.19l-.34.79c-.03.06-.02.14.02.19.04.06.1.09.17.09h1.54v.23c0,.27-.22.48-.48.48h-6.69c-.27,0-.48-.22-.48-.48v-.23h1.54c.07,0,.13-.03.17-.09s.04-.13.02-.19l-.34-.79c-.05-.11-.16-.19-.29-.19h-1.1v-3.1c0-.09-.07-.16-.16-.16s-.16.07-.16.16v4.59c0,.37.25.69.6.78v.47c0,.33.27.59.59.59h1.09c.33,0,.59-.27.59-.59v-.44h2.57v.44c0,.33.27.59.59.59h1.09c.33,0,.59-.27.59-.59v-.47c.34-.09.6-.41.6-.78v-6.66h.39v1.97c0,.17.14.31.31.31h.34c.17,0,.31-.14.31-.31v-1.98c0-.17-.14-.31-.31-.31h0ZM2.64,6.47h-.32v-1.96h.32v1.96ZM9.97,2.89h-4.93v-.31c0-.15.12-.27.27-.27h4.39c.15,0,.27.12.27.27v.31h0ZM3.67,10h1.09l.27.62h-1.36v-.62ZM5.89,12.42c0,.15-.12.27-.27.27h-1.09c-.15,0-.27-.12-.27-.27v-.44h1.63v.44ZM10.73,12.42c0,.15-.12.27-.27.27h-1.09c-.15,0-.27-.12-.27-.27v-.44h1.63v.44ZM11.33,10.62h-1.36l.27-.62h1.09v.62ZM12.69,6.47h-.32v-1.96h.32v1.96ZM9.22,3.86c.09,0,.16-.07.16-.16s-.07-.16-.16-.16h-3.44c-.09,0-.16.07-.16.16s.07.16.16.16h3.44ZM6.59,10.05c0,.09.07.16.16.16h1.5c.09,0,.16-.07.16-.16s-.07-.16-.16-.16h-1.5c-.09,0-.16.07-.16.16ZM5.03,3.7c0-.09-.07-.16-.16-.16s-.16.07-.16.16.07.16.16.16.16-.07.16-.16ZM3.99,4.56v3.57c0,.21.17.38.38.38h6.26c.21,0,.38-.17.38-.38v-3.57c0-.21-.17-.38-.38-.38h-6.26c-.21,0-.38.17-.38.38h0ZM10.69,4.56v3.57s-.02.05-.05.05h-6.26s-.05-.02-.05-.05v-3.57s.02-.05.05-.05h6.26s.05.02.05.05h0Z"/>
    </g>
  </g>
</svg>