<?xml version="1.0" encoding="UTF-8"?>
<svg id="Layer_2" data-name="Layer 2" xmlns="http://www.w3.org/2000/svg" viewBox="0 0 15 15">
  <defs>
    <style>
      .cls-1 {
        fill: #fff;
      }

      .cls-2 {
        fill: #262626;
        fill-rule: evenodd;
      }
    </style>
  </defs>
  <g id="Layer_1-2" data-name="Layer 1">
    <g>
      <rect class="cls-1" width="15" height="15" rx=".84" ry=".84"/>
      <path class="cls-2" d="M10.61,2.22h-6.21c-.63,0-1.12.55-1.05,1.17l.94,8.45c.06.53.51.94,1.05.94h4.33c.54,0,.99-.4,1.05-.94l.94-8.45c.07-.63-.42-1.17-1.05-1.17ZM6.44,8.93c-.59,0-1.07-.48-1.07-1.07s.48-1.07,1.07-1.07,1.07.48,1.07,1.07-.48,1.07-1.07,1.07ZM8.03,10.14c-.29,0-.53-.24-.53-.53s.24-.53.53-.53.53.24.53.53-.24.53-.53.53ZM10.3,6.05l-.65.04c-.48.02-1.16-.05-1.94-.39l-.18-.07c-.93-.37-1.74-.43-2.34-.4-.18.01-.34.03-.48.05l-.1.02-.22-2.02h6.21l-.31,2.77Z"/>
    </g>
  </g>
</svg>