<?xml version="1.0" encoding="UTF-8"?>
<svg id="Layer_2" data-name="Layer 2" xmlns="http://www.w3.org/2000/svg" xmlns:xlink="http://www.w3.org/1999/xlink" viewBox="0 0 15 15">
  <defs>
    <style>
      .cls-1 {
        fill: #fff;
      }

      .cls-2 {
        fill: #262626;
      }

      .cls-3 {
        fill: none;
      }

      .cls-4 {
        clip-path: url(#clippath);
      }
    </style>
    <clipPath id="clippath">
      <rect class="cls-3" x="2.58" y="2.58" width="9.83" height="9.83"/>
    </clipPath>
  </defs>
  <g id="Layer_1-2" data-name="Layer 1">
    <g>
      <rect class="cls-1" width="15" height="15" rx=".84" ry=".84"/>
      <g class="cls-4">
        <g>
          <path class="cls-2" d="M12.01,12.21h-1.64c-.11,0-.2-.09-.2-.2v-.2h-5.33v.2c0,.11-.09.2-.2.2h-1.64c-.11,0-.2-.09-.2-.2V2.99c0-.11.09-.2.2-.2h9.01c.11,0,.2.09.2.2v9.01c0,.11-.09.2-.2.2ZM10.57,11.8h1.23V3.2H3.2v8.6h1.23v-.2c0-.11.09-.2.2-.2h5.74c.11,0,.2.09.2.2v.2Z"/>
          <path class="cls-2" d="M10.37,11.8h-5.74c-.11,0-.2-.09-.2-.2v-6.56c0-.11.09-.2.2-.2h5.74c.11,0,.2.09.2.2v6.56c0,.11-.09.2-.2.2ZM4.84,11.39h5.33v-6.15h-5.33v6.15Z"/>
          <path class="cls-2" d="M7.5,11.8c-.11,0-.2-.09-.2-.2v-6.56c0-.11.09-.2.2-.2s.2.09.2.2v6.56c0,.11-.09.2-.2.2Z"/>
          <path class="cls-2" d="M11.19,7.3c.11,0,.2-.09.2-.2s-.09-.2-.2-.2-.2.09-.2.2.09.2.2.2Z"/>
          <path class="cls-2" d="M11.19,8.11c.11,0,.2-.09.2-.2s-.09-.2-.2-.2-.2.09-.2.2.09.2.2.2Z"/>
          <path class="cls-2" d="M6.68,4.43c-.05,0-.1-.02-.15-.06l-.26-.27-.26.27c-.08.08-.21.08-.29,0s-.08-.21,0-.29l.41-.41c.08-.08.21-.08.29,0l.41.41c.08.08.08.21,0,.29-.04.04-.09.06-.15.06Z"/>
          <path class="cls-2" d="M8.73,4.43c-.05,0-.1-.02-.15-.06l-.41-.41c-.08-.08-.08-.21,0-.29s.21-.08.29,0l.27.26.26-.26c.08-.08.21-.08.29,0s.08.21,0,.29l-.41.41s-.09.06-.14.06Z"/>
        </g>
      </g>
    </g>
  </g>
</svg>