<?xml version="1.0" encoding="UTF-8"?>
<svg id="Layer_2" data-name="Layer 2" xmlns="http://www.w3.org/2000/svg" viewBox="0 0 15 15">
  <defs>
    <style>
      .cls-1 {
        fill: #fff;
      }

      .cls-2 {
        fill: #262626;
      }

      .cls-3 {
        fill: none;
        stroke: #262626;
        stroke-miterlimit: 10;
        stroke-width: .56px;
      }
    </style>
  </defs>
  <g id="Layer_1-2" data-name="Layer 1">
    <g>
      <rect class="cls-1" width="15" height="15" rx=".84" ry=".84"/>
      <g>
        <path class="cls-2" d="M7.21,5.24c-.08-.34-.39-.59-.75-.59h-.39c-.32,0-.58.26-.58.58v2.21l1.8-1.81-.09-.39Z"/>
        <circle class="cls-2" cx="6.27" cy="3.88" r=".77"/>
        <path class="cls-3" d="M10.38,7.26h.65c.76,0,1.38-.62,1.38-1.38s-.62-1.38-1.38-1.38h-1.55c-.16,0-.32.06-.43.18l-4.43,4.44h-.65c-.76,0-1.38.62-1.38,1.38s.62,1.38,1.38,1.38h1.56c.16-.01.31-.08.43-.19l4.43-4.43Z"/>
        <path class="cls-2" d="M11.17,9.01h-1.15c-.16,0-.29.13-.29.29s.13.29.29.29h.46l-1.04,1.04c-.11.11-.11.29,0,.41.06.06.13.08.2.08s.15-.03.2-.08l1.04-1.04v.46c0,.16.13.29.29.29s.29-.13.29-.29v-1.15c0-.16-.13-.29-.29-.29h0Z"/>
      </g>
    </g>
  </g>
</svg>