<?xml version="1.0" encoding="UTF-8"?>
<svg id="Layer_2" data-name="Layer 2" xmlns="http://www.w3.org/2000/svg" viewBox="0 0 15 15">
  <defs>
    <style>
      .cls-1 {
        fill: #fff;
      }

      .cls-2 {
        fill: #262626;
        fill-rule: evenodd;
      }
    </style>
  </defs>
  <g id="Layer_1-2" data-name="Layer 1">
    <g>
      <rect class="cls-1" width="15" height="15" rx=".84" ry=".84"/>
      <g>
        <path class="cls-2" d="M7.16,4.79c0-1.26-.8-2.74-1.69-2.74s-1.69,1.48-1.69,2.74c0,1.09.72,1.58,1.48,1.81,0,0,.19,3.1-.45,5.49-.14.51.4.86.7.86s.83-.34.69-.84c-.64-2.42-.49-5.49-.49-5.49.73-.25,1.46-.76,1.46-1.83h0Z"/>
        <path class="cls-2" d="M9.78,6.52c.73-.28,1.45-.44,1.45-1.71,0-.69-.36-2.28-.62-2.75v2.72h-.71v-2.73h-.66v2.73h-.73v-2.72c-.26.48-.64,2.05-.64,2.74,0,1.26.74,1.43,1.47,1.71.03.87.07,3.57-.46,5.55-.14.51.39.86.69.86s.81-.34.68-.84c-.51-1.97-.51-4.63-.49-5.56h.02Z"/>
      </g>
    </g>
  </g>
</svg>