<?xml version="1.0" encoding="UTF-8"?>
<svg id="Layer_2" data-name="Layer 2" xmlns="http://www.w3.org/2000/svg" viewBox="0 0 24 24">
  <defs>
    <style>
      .cls-1 {
        fill: #fff;
      }

      .cls-2 {
        fill: #262626;
      }
    </style>
  </defs>
  <g id="Layer_1-2" data-name="Layer 1">
    <g>
      <rect class="cls-1" width="24" height="24" rx="1.34" ry="1.34"/>
      <path class="cls-2" d="M10.77,18.12v-7.1c0-1.59.08-2.4-1.19-2.49v-.19c1.08-.09,2.62-.42,3.64-.87v10.76c.02,1.28.3,1.87,1.49,1.87v.19c-.76-.06-1.83-.08-2.98-.08-.81,0-1.64.02-2.45.08v-.19c1.23,0,1.47-.62,1.49-1.98ZM11.91,3.7c.85,0,1.38.68,1.38,1.49s-.57,1.45-1.38,1.45-1.36-.55-1.36-1.45c0-.83.55-1.49,1.36-1.49Z"/>
    </g>
  </g>
</svg>