<?xml version="1.0" encoding="UTF-8"?>
<svg id="Layer_2" data-name="Layer 2" xmlns="http://www.w3.org/2000/svg" viewBox="0 0 11.45 17.27">
  <defs>
    <style>
      .cls-1 {
        fill: #111;
      }

      .cls-2 {
        fill: #ff7300;
      }

      .cls-3 {
        fill: #fff;
      }

      .cls-4 {
        fill: #a54c11;
      }
    </style>
  </defs>
  <g id="Layer_1-2" data-name="Layer 1">
    <g>
      <g>
        <path class="cls-2" d="M11.29,4.4c-.18-.73-.49-1.39-.92-2-.43-.6-.96-1.11-1.59-1.51C7.93.35,7,.06,6,0c-.91-.05-1.77.12-2.6.49-.63.28-1.19.66-1.68,1.15-.46.45-.83.97-1.12,1.54-.24.48-.41.98-.5,1.51-.09.48-.14.97-.06,1.45.04.27.11.53.17.79,0,.03.02.07.03.1,0,0,0,0,0,.01,0,0,0,.01,0,.02.1.3.2.6.31.89.36.94.79,1.85,1.24,2.75.63,1.25,1.32,2.46,2.06,3.65.48.77.97,1.53,1.46,2.3.12.18.24.36.36.53.01.02.03.04.05.07.01-.01.02-.02.02-.03.48-.73.96-1.47,1.43-2.21.6-.93,1.16-1.89,1.69-2.86.37-.69.73-1.39,1.09-2.09.22-.44.43-.89.62-1.35.19-.44.35-.88.52-1.33.06-.17.11-.36.16-.54.09-.27.14-.55.17-.84.06-.55,0-1.1-.14-1.64ZM4.78,8.07c-.71-.27-1.22-.76-1.53-1.45-.1-.22-.17-.46-.2-.7,0-.03-.01-.05-.02-.08,0-.02,0-.04,0-.07-.04-.4.02-.8.16-1.18.16-.43.41-.79.75-1.09.21-.19.45-.34.71-.46h0s0,0,0,0c.18-.05.36-.12.54-.16.6-.13,1.18-.05,1.73.23.65.33,1.1.85,1.34,1.54.23.63.2,1.25-.04,1.87-.06.15-.14.29-.21.43-.26.4-.58.73-1,.96-.73.4-1.48.46-2.26.17Z"/>
        <path class="cls-1" d="M5.73,17.27v-3.72c.77-.66,1.59-1.45,2.41-2.39,1.51-1.73,2.54-3.43,3.26-4.85-.14.68-.34,1.3-.72,2.17-.51,1.17-.76,1.98-2.69,5.28-.53.91-1.31,2.1-2.25,3.5Z"/>
        <path class="cls-4" d="M5.72,17.27v-3.72c-.77-.66-1.59-1.45-2.41-2.39C1.81,9.44.77,7.73.06,6.31c.14.68.34,1.3.72,2.17.51,1.17.76,1.98,2.69,5.28.53.91,1.31,2.1,2.25,3.5Z"/>
      </g>
      <g>
        <circle class="cls-3" cx="5.72" cy="5.54" r="3.05" transform="translate(-.27 10.78) rotate(-85.26)"/>
        <circle class="cls-2" cx="5.72" cy="5.54" r="2.68"/>
        <path class="cls-3" d="M8.13,5.72c0-.06,0-.12,0-.18,0-.05,0-.11,0-.16-.07,0-.13-.06-.14-.13,0-.07.03-.14.1-.16-.02-.11-.05-.22-.09-.33-.07.01-.14-.02-.17-.09-.03-.07,0-.14.06-.18-.05-.1-.11-.2-.17-.3-.06.03-.14.01-.18-.04-.04-.06-.04-.14,0-.19-.04-.05-.08-.09-.12-.13-.04-.04-.08-.08-.12-.11-.05.05-.13.05-.19,0-.06-.04-.07-.12-.04-.18-.09-.06-.19-.12-.3-.17-.04.06-.11.08-.18.05-.07-.03-.1-.1-.09-.17-.11-.04-.22-.07-.33-.09-.02.07-.09.11-.16.1-.07,0-.12-.07-.13-.14-.06,0-.12,0-.18,0-.05,0-.11,0-.16,0,0,.07-.06.13-.13.14-.07,0-.14-.03-.16-.1-.11.02-.22.05-.33.09.01.07-.02.14-.09.17-.07.03-.14,0-.18-.06-.1.05-.2.11-.3.17.03.06.01.14-.04.18-.06.04-.14.04-.19,0-.04.04-.09.08-.13.12-.04.04-.08.08-.11.12.05.05.05.13,0,.19-.04.06-.12.07-.18.04-.06.09-.12.19-.17.29.06.04.08.11.05.18-.03.07-.1.1-.17.09-.04.11-.07.22-.09.33.07.02.11.09.1.16,0,.07-.07.12-.14.13,0,.06,0,.12,0,.18,0,.05,0,.11,0,.16.07,0,.13.06.14.13,0,.07-.03.14-.1.16.02.11.05.22.09.33.07-.01.14.02.17.09.03.07,0,.14-.06.18.05.1.11.2.17.3.06-.03.14-.01.18.04.04.06.04.14,0,.19.04.05.08.09.12.13.04.04.08.08.12.11.05-.05.13-.05.19,0,.06.04.07.12.04.18.09.06.19.12.29.17.04-.06.11-.08.18-.05.07.03.1.1.09.17.11.04.22.07.33.09.02-.07.09-.11.16-.1.07,0,.12.07.13.14.06,0,.12,0,.18,0,.05,0,.11,0,.16,0,0-.07.06-.13.13-.14.07,0,.14.03.16.1.11-.02.22-.05.33-.09-.01-.07.02-.14.09-.17.07-.03.14,0,.18.06.1-.05.2-.11.3-.17-.03-.06-.01-.14.04-.18.06-.04.14-.04.19,0,.05-.04.09-.08.13-.12.04-.04.08-.08.11-.12-.05-.05-.05-.13,0-.19.04-.06.12-.07.18-.04.06-.09.12-.19.17-.29-.06-.04-.08-.11-.05-.18.03-.07.1-.1.17-.09.04-.11.07-.22.09-.33-.07-.02-.11-.09-.1-.16,0-.07.07-.12.14-.13Z"/>
        <path class="cls-2" d="M4.95,5.54c0-.43.35-.78.78-.78s.78.35.78.78-.35.78-.78.78-.78-.35-.78-.78Z"/>
        <path class="cls-3" d="M5.02,5.54c0-.39.31-.7.7-.7s.7.31.7.7-.31.7-.7.7-.7-.31-.7-.7Z"/>
        <circle class="cls-2" cx="5.72" cy="5.54" r=".53" transform="translate(-.3 .33) rotate(-3.2)"/>
        <g>
          <path class="cls-2" d="M5.78,3.12h-.1s.07.7-.12.89c0,0,.14-.02.14.76h.08c0-.78.14-.76.14-.76-.19-.19-.12-.89-.12-.89Z"/>
          <path class="cls-2" d="M5.77,6.3h-.08c0,.78-.14.76-.14.76.19.19.12.89.12.89h.1s-.07-.7.12-.89c0,0-.14.02-.14-.76Z"/>
          <path class="cls-2" d="M7.26,5.36s.02.14-.76.14v.04h0v.04c.78,0,.76.14.76.14.19-.19.89-.12.89-.12v-.05h0v-.06s-.7.07-.89-.12Z"/>
          <path class="cls-2" d="M4.97,5.58v-.04h0v-.04c-.78,0-.76-.14-.76-.14-.19.19-.89.12-.89.12v.05h0v.06s.7-.07.89.12c0,0-.02-.14.76-.14Z"/>
          <path class="cls-2" d="M6.27,4.99h0s.03.03.03.03c.55-.55.64-.44.64-.44,0-.27.54-.72.54-.72l-.03-.03h0s-.03-.04-.03-.04c0,0-.45.54-.72.54,0,0,.11.08-.44.64l.03.03Z"/>
          <path class="cls-2" d="M5.19,6.08h0s-.03-.03-.03-.03c-.55.55-.64.44-.64.44,0,.27-.54.72-.54.72l.03.03h0s.03.04.03.04c0,0,.45-.54.72-.54,0,0-.11-.08.44-.64l-.03-.03Z"/>
          <path class="cls-2" d="M6.94,6.49s-.08.11-.64-.44l-.03.03h0s-.03.03-.03.03c.55.55.44.64.44.64.27,0,.72.54.72.54l.03-.03h0s.03-.04.03-.04c0,0-.54-.45-.54-.72Z"/>
          <path class="cls-2" d="M4.78,4.33c-.27,0-.72-.54-.72-.54l-.03.03h0s-.03.04-.03.04c0,0,.54.45.54.72,0,0,.08-.11.64.44l.03-.03h0s.03-.03.03-.03c-.55-.55-.44-.64-.44-.64Z"/>
        </g>
        <g>
          <path class="cls-2" d="M6.99,3.47l-.04-.02h0s-.04-.03-.04-.03c0,0-.29.64-.55.71,0,0,.13.05-.27.73l.03.02h0s.03.02.03.02c.39-.68.5-.59.5-.59-.07-.26.34-.83.34-.83Z"/>
          <path class="cls-2" d="M5.38,6.22l-.03-.02h0s-.03-.02-.03-.02c-.39.68-.5.59-.5.59.07.26-.34.83-.34.83l.04.02h0s.04.03.04.03c0,0,.29-.64.55-.71,0,0-.13-.05.27-.73Z"/>
          <path class="cls-2" d="M7.14,6.15s-.05.13-.73-.27l-.02.03h0s-.02.04-.02.04c.68.39.59.5.59.5.26-.07.83.34.83.34l.02-.04h0s.02-.05.02-.05c0,0-.64-.29-.71-.55Z"/>
          <path class="cls-2" d="M5.05,5.19l.02-.03h0s.02-.04.02-.04c-.68-.39-.59-.5-.59-.5-.26.07-.83-.34-.83-.34l-.02.04h0s-.02.05-.02.05c0,0,.64.29.71.55,0,0,.05-.13.73.27Z"/>
          <path class="cls-2" d="M6.47,5.34h0s0,.04,0,.04c.76-.2.77-.07.77-.07.13-.23.83-.35.83-.35v-.05s-.01,0-.01,0v-.05s-.67.24-.9.11c0,0,.05.13-.7.33v.04Z"/>
          <path class="cls-2" d="M4.99,5.74h0s0-.04,0-.04c-.76.2-.77.07-.77.07-.13.23-.83.35-.83.35v.05s.01,0,.01,0v.05s.67-.24.9-.11c0,0-.05-.13.7-.33v-.04Z"/>
          <path class="cls-2" d="M6.3,6.97s-.13.05-.33-.7h-.04s0,.01,0,.01h-.04c.2.77.07.78.07.78.23.13.35.83.35.83h.05s0-.01,0-.01h.05s-.24-.67-.11-.9Z"/>
          <path class="cls-2" d="M5.51,4.01c-.23-.13-.35-.83-.35-.83h-.05s0,.01,0,.01h-.05s.24.67.11.9c0,0,.13-.05.33.7h.04s0-.01,0-.01h.04c-.2-.77-.07-.78-.07-.78Z"/>
        </g>
        <g>
          <path class="cls-2" d="M7.85,4.37l-.02-.04h0s-.02-.05-.02-.05c0,0-.57.41-.83.34,0,0,.08.11-.59.5l.02.03h0s.02.04.02.04c.68-.39.73-.27.73-.27.07-.26.71-.55.71-.55Z"/>
          <path class="cls-2" d="M5.09,5.96l-.02-.03h0s-.02-.04-.02-.04c-.68.39-.73.27-.73.27-.07.26-.71.55-.71.55l.02.04h0s.02.05.02.05c0,0,.57-.41.83-.34,0,0-.08-.11.59-.5Z"/>
          <path class="cls-2" d="M6.65,6.77s-.11.08-.5-.59l-.03.02h0s-.03.02-.03.02c.39.68.27.73.27.73.26.07.55.71.55.71l.04-.02h0s.04-.03.04-.03c0,0-.41-.57-.34-.83Z"/>
          <path class="cls-2" d="M5.31,4.9l.03-.02h0s.03-.02.03-.02c-.39-.68-.27-.73-.27-.73-.26-.07-.55-.71-.55-.71l-.04.02h0s-.04.03-.04.03c0,0,.41.57.34.83,0,0,.11-.08.5.59Z"/>
          <path class="cls-2" d="M6.47,5.73h0s0,.04,0,.04c.76.2.7.33.7.33.23-.13.89.11.89.11v-.05s.01,0,.01,0v-.05s-.68-.12-.81-.35c0,0-.02.14-.77-.07v.04Z"/>
          <path class="cls-2" d="M4.99,5.34h0s0-.04,0-.04c-.76-.2-.7-.33-.7-.33-.23.13-.89-.11-.89-.11v.05s-.01,0-.01,0v.05s.68.12.81.35c0,0,.02-.14.77.07v-.04Z"/>
          <path class="cls-2" d="M5.51,7.06s-.14-.02.07-.77h-.04s0-.01,0-.01h-.04c-.2.75-.33.69-.33.69.13.23-.11.89-.11.89h.05s0,.01,0,.01h.05s.12-.68.35-.81Z"/>
          <path class="cls-2" d="M6.3,4.11c-.13-.23.11-.89.11-.89h-.05s0-.01,0-.01h-.05s-.12.68-.35.81c0,0,.14.02-.07.77h.04s0,.01,0,.01h.04c.2-.75.33-.69.33-.69Z"/>
        </g>
      </g>
    </g>
  </g>
</svg>