<?xml version="1.0" encoding="UTF-8"?>
<svg id="Layer_2" data-name="Layer 2" xmlns="http://www.w3.org/2000/svg" viewBox="0 0 40.82 32.44">
  <defs>
    <style>
      .cls-1 {
        fill: #262626;
      }
    </style>
  </defs>
  <g id="Layer_1-2" data-name="Layer 1">
    <g>
      <path class="cls-1" d="M4.93,7.98v-.1c1.05-.71,2.06-1.1,2.92-1.1,1.07,0,1.95.48,2.67,1.37.54.68.81,1.44.81,2.29,0,.71-.23,1.25-.65,1.7.35.23.6.47.81.69.3.31.78.47,1.46.47.72,0,1.4-.19,1.99-.61v-4.41h-2.3l-.57-1.16.1-.13h5.84l.57,1.16-.1.13h-2.17l.05,10.97-.12.13-1.33-.36v-4.44c-.31.1-.65.13-1.03.13-.67,0-1.29-.19-1.8-.57l-.02.02c.13.36.14.74.14,1.17,0,1.66-1.33,2.81-3.01,2.81-2.59,0-4.38-2.13-5.85-5.08v-.08l.72-.44c1.35,2.65,2.87,4.03,4.52,4.03,1.19,0,2.39-.9,2.39-2.1,0-1.02-.62-1.69-1.72-1.69-.56,0-1.3.21-2.21.61l-.92-1.44.02-.08c1.16-.48,2.19-.77,3.03-.77.6-.42.97-.95.97-1.59,0-.71-.6-1.26-1.41-1.26s-1.8.4-2.88,1.1l-.93-1.39Z"/>
      <path class="cls-1" d="M29.6,15.48l2.33,5.82c-.06,0-.11,0-.18,0-.53.01-1.18.02-1.93.02s-1.42,0-1.94-.02c-.15,0-.28-.01-.41-.01l2.12-5.81Z"/>
      <path class="cls-1" d="M39.45,6.98h-18.51c-.76,0-1.37.61-1.37,1.37v22.72c0,.76.62,1.37,1.37,1.37h18.51c.76,0,1.37-.61,1.37-1.37V8.35c0-.76-.62-1.37-1.37-1.37ZM37.08,26.95h-4.84l-.05-.91,1.46-.34-1.28-3.19c-.34,0-.68-.01-1.02-.02-.53,0-1.04-.01-1.54-.01s-.98,0-1.5.01c-.4,0-.84.01-1.29.03l-1.14,3.19,1.46.34-.05.91h-4.02l-.05-.91,1.17-.34,4.94-12.4,1.39-.84,5.22,13.24,1.2.34-.07.91Z"/>
      <path class="cls-1" d="M20.23,26.16H1.72c-.95,0-1.72-.77-1.72-1.72V1.72C0,.77.77,0,1.72,0h18.51c.95,0,1.72.77,1.72,1.72v22.72c0,.95-.77,1.72-1.72,1.72ZM1.72.7c-.56,0-1.02.46-1.02,1.02v22.72c0,.56.46,1.02,1.02,1.02h18.51c.56,0,1.02-.46,1.02-1.02V1.72c0-.56-.46-1.02-1.02-1.02H1.72Z"/>
    </g>
  </g>
</svg>