<?xml version="1.0" encoding="UTF-8"?>
<svg id="Layer_2" data-name="Layer 2" xmlns="http://www.w3.org/2000/svg" viewBox="0 0 15 15">
  <defs>
    <style>
      .cls-1 {
        fill: #fff;
      }

      .cls-2 {
        fill: #262626;
      }
    </style>
  </defs>
  <g id="Layer_1-2" data-name="Layer 1">
    <g>
      <rect class="cls-1" width="15" height="15" rx=".84" ry=".84"/>
      <path class="cls-2" d="M11.87,8.29s0,.05,0,.08c0,.09,0,.18,0,.28,0,2.41-4.37,3.77-4.37,3.77,0,0-4.37-1.36-4.37-3.77,0-.09,0-.19,0-.28,0-.03,0-.05,0-.08V2.94c0-.2.16-.35.35-.35h8.02c.2,0,.35.16.35.35v5.35ZM10.16,6.39c0-.2-.16-.35-.35-.35h-1.41v-1.41c0-.19-.16-.35-.35-.35h-1.09c-.2,0-.35.16-.35.35v1.41h-1.41c-.2,0-.35.16-.35.35v1.09c0,.19.16.35.35.35h1.41v1.41c0,.19.16.35.35.35h1.09c.2,0,.35-.16.35-.35v-1.41h1.41c.2,0,.35-.16.35-.35v-1.09Z"/>
    </g>
  </g>
</svg>