<?xml version="1.0" encoding="UTF-8"?>
<svg id="Layer_1" data-name="Layer 1" xmlns="http://www.w3.org/2000/svg" viewBox="0 0 20.45 27.26">
  <defs>
    <style>
      .cls-1 {
        fill: #fff;
      }
    </style>
  </defs>
  <path class="cls-1" d="M5.27,4.96C5.27,2.22,7.49,0,10.22,0s4.96,2.22,4.96,4.96v8.67c0,2.74-2.22,4.96-4.96,4.96s-4.96-2.22-4.96-4.96V4.96Z"/>
  <path class="cls-1" d="M3.1,13.44v.19c0,1.89.75,3.7,2.09,5.04,1.34,1.34,3.15,2.09,5.04,2.09s3.7-.75,5.04-2.09c1.34-1.34,2.09-3.15,2.09-5.04v-.19c0-.68.55-1.24,1.24-1.24h.62c.68,0,1.24.55,1.24,1.24v.19c0,2.71-1.08,5.31-2.99,7.23-1.55,1.55-3.54,2.55-5.68,2.88v2.29c0,.68-.55,1.24-1.24,1.24h-.62c-.68,0-1.24-.55-1.24-1.24v-2.29c-2.14-.33-4.13-1.33-5.68-2.88-1.92-1.92-2.99-4.52-2.99-7.23v-.19c0-.68.55-1.24,1.24-1.24h.62c.68,0,1.24.55,1.24,1.24Z"/>
</svg>