<?xml version="1.0" encoding="UTF-8"?>
<svg id="Layer_2" xmlns="http://www.w3.org/2000/svg" version="1.1" viewBox="0 0 22.9 19.5">
  <!-- Generator: Adobe Illustrator 29.1.0, SVG Export Plug-In . SVG Version: 2.1.0 Build 142)  -->
  <defs>
    <style>
      .st0 {
        fill: #262626;
      }
    </style>
  </defs>
  <g id="Layer_1-2">
    <path class="st0" d="M12.2,1v17.4c0,1.1-.6,1.4-1.4.6l-5.2-5.2H2c-1.1,0-2-.9-2-2v-4.1c0-1.1.9-2,2-2h3.6L10.8.5c.8-.8,1.4-.5,1.4.6h0ZM22.7,12.5c.3.3.3.8,0,1.1s-.8.3-1.1,0h0l-2.8-2.8-2.8,2.8c-.3.3-.8.3-1.1,0s-.3-.8,0-1.1h0l2.8-2.8-2.8-2.8c-.3-.3-.3-.8,0-1.1.3-.3.8-.3,1.1,0l2.8,2.8,2.8-2.8c.3-.3.8-.3,1.1,0,.3.3.3.8,0,1.1l-2.8,2.8,2.8,2.8Z"/>
  </g>
</svg>