<?xml version="1.0" encoding="UTF-8"?>
<svg id="Layer_2" data-name="Layer 2" xmlns="http://www.w3.org/2000/svg" viewBox="0 0 15 15">
  <defs>
    <style>
      .cls-1 {
        fill: #fff;
      }

      .cls-2 {
        fill: #262626;
      }
    </style>
  </defs>
  <g id="Layer_1-2" data-name="Layer 1">
    <g>
      <rect class="cls-1" width="15" height="15" rx=".84" ry=".84"/>
      <g>
        <path class="cls-2" d="M13.27,4.5c-.07-1.14-.31-2.08-.52-2.71l.47-.31c.16-.1.08-.34-.1-.34h-4.23c-.65,0-1.18.53-1.18,1.18v3.48c0,.1.08.19.19.19h.19c0,.42.34.76.75.76s.75-.34.75-.76c2.59,0,2.44,0,2.47,0l.33-.07c-.05.45.31.83.75.83.57,0,.93-.62.66-1.12l.13-.03c.09-.02.15-.09.15-.18,0-.47-.34-.86-.79-.91h0ZM9.93,5.61l-.18-1.33c-.01-.09-.09-.16-.18-.16h-.35v-1.87h1.09v3.36h-.38ZM10.68,4.5h.38v.31l-.38.47v-.77ZM11.39,5s.04-.08.04-.12v-.37c.1,0,.19-.08.19-.19s-.08-.19-.19-.19h-.76v-1.89h1.14v3.36h-.93l.51-.61ZM12.19,4.12h.67c.01.12.02.25.03.37-.09,0-.39-.05-.7.18v-.55h0ZM12.82,3.75h-.62v-1.6l.23-.15c.14.45.3,1.05.4,1.75ZM8.88,1.51h3.6l-.56.36h-2.9c-.1,0-.19.08-.19.19v2.06h-.77v-1.8c0-.44.36-.81.81-.81h0ZM8.07,4.49h1.33l.15,1.12h-1.48v-1.12ZM8.82,6.37c-.21,0-.38-.17-.38-.38h.76c0,.21-.17.38-.38.38ZM12.2,5.39c0-.29.24-.53.53-.53h.42c.14,0,.28.06.38.16.07.07.11.15.14.24l-1.47.3v-.17ZM13.12,6.37c-.28,0-.46-.29-.34-.54l.59-.12c.26.23.1.66-.25.66Z"/>
        <g>
          <path class="cls-2" d="M3,7.7h.22v.54h.22v-.54h.22v-.22h-.65v.22Z"/>
          <path class="cls-2" d="M4.08,7.49h-.11s-.09.03-.1.07l-.22.65.21.07.05-.14h.24l.05.14.21-.07-.22-.65s-.06-.07-.1-.07ZM3.97,7.92l.05-.14.05.14h-.1Z"/>
          <path class="cls-2" d="M5.07,7.43l-.18.25-.18-.25-.18.13.23.32-.23.32.18.13.18-.25.18.25.18-.13-.23-.32.23-.32-.18-.13Z"/>
          <path class="cls-2" d="M5.37,7.49h.22v.76h-.22v-.76Z"/>
          <path class="cls-2" d="M1.92,11.16c-.24,0-.43.19-.43.43s.19.43.43.43.43-.19.43-.43-.19-.43-.43-.43ZM1.92,11.81c-.12,0-.22-.1-.22-.22s.1-.22.22-.22.22.1.22.22-.1.22-.22.22Z"/>
          <path class="cls-2" d="M6.24,11.59c0,.24.19.43.43.43s.43-.19.43-.43-.19-.43-.43-.43-.43.19-.43.43ZM6.67,11.38c.12,0,.22.1.22.22s-.1.22-.22.22-.22-.1-.22-.22.1-.22.22-.22Z"/>
          <path class="cls-2" d="M5.26,10.94h-1.94c-.42,0-.76.34-.76.76v.22c0,.06.05.11.11.11h3.24c.06,0,.11-.05.11-.11v-.22c0-.42-.34-.76-.76-.76ZM5.8,11.81h-3.02v-.11c0-.3.24-.54.54-.54h1.94c.3,0,.54.24.54.54v.11Z"/>
          <path class="cls-2" d="M3.1,11.48h2.38v.22h-2.38v-.22Z"/>
          <path class="cls-2" d="M2.15,10.22s.05.04.08.04h4.11c.06,0,.1-.05.1-.1,0,0,0-.02,0-.02l-.26-1.11c-.04-.18-.2-.31-.39-.31h-3.03c-.18,0-.34.13-.39.31l-.26,1.11s0,.06.02.09h0ZM2.59,9.07c.02-.09.1-.15.19-.15h3.03c.09,0,.17.06.19.15l.23.98h-3.86l.23-.98Z"/>
          <path class="cls-2" d="M6.99,10.51h.32c.18,0,.32-.15.32-.32s-.15-.32-.32-.32h-.32c-.05,0-.1.01-.15.04l-.2-.91c-.06-.37-.37-.64-.75-.64h0s.02-.07.02-.11v-.76c0-.18-.15-.32-.32-.32h-2.59c-.18,0-.32.15-.32.32v.76s0,.07.02.11h0c-.37,0-.69.27-.75.63l-.2.92s-.1-.04-.15-.04h-.32c-.18,0-.32.15-.32.32s.15.32.32.32h.32s.01,0,.02,0v.03c-.29.18-.46.5-.45.83v.78c-.13.05-.22.17-.22.3v.22c0,.18.15.32.32.32h.22v.43c0,.24.19.43.43.43s.43-.19.43-.43v-.43h3.89v.43c0,.24.19.43.43.43s.43-.19.43-.43v-.43h.22c.18,0,.32-.15.32-.32v-.22c0-.14-.09-.26-.22-.3v-.78c0-.34-.17-.65-.45-.83v-.03s0,0,.01,0h0ZM6.99,10.08h.32c.06,0,.11.05.11.11s-.05.11-.11.11h-.32s-.05-.01-.07-.03l-.02-.12s.05-.07.1-.07ZM2.89,8.24v-.76c0-.06.05-.11.11-.11h2.59c.06,0,.11.05.11.11v.76c0,.06-.05.11-.11.11h-2.59c-.06,0-.11-.05-.11-.11ZM2.15,9.02c.04-.26.27-.46.53-.46h3.21c.27,0,.5.2.53.46l.3,1.41c-.07-.02-.15-.03-.22-.03H2.07c-.08,0-.15.01-.22.03l.3-1.41ZM1.59,10.3h-.32c-.06,0-.11-.05-.11-.11s.05-.11.11-.11h.32s.08.03.1.07l-.02.12s-.05.03-.07.03h0ZM2.13,13.43c0,.12-.1.22-.22.22s-.22-.1-.22-.22v-.43h.43v.43ZM6.88,13.43c0,.12-.1.22-.22.22s-.22-.1-.22-.22v-.43h.43v.43ZM7.42,12.67c0,.06-.05.11-.11.11H1.27c-.06,0-.11-.05-.11-.11v-.22c0-.06.05-.11.11-.11h6.05c.06,0,.11.05.11.11v.22ZM7.21,11.38v.76H1.38v-.76c-.01-.4.3-.74.7-.76h4.43c.4.02.71.35.7.76Z"/>
        </g>
        <path class="cls-2" d="M1.74,1.79c3.93,3.4,7.63,7.09,11.03,11.03C8.83,9.41,5.15,5.72,1.74,1.79h0Z"/>
      </g>
    </g>
  </g>
</svg>