<?xml version="1.0" encoding="UTF-8"?>
<svg id="Layer_2" data-name="Layer 2" xmlns="http://www.w3.org/2000/svg" viewBox="0 0 15 15">
  <defs>
    <style>
      .cls-1 {
        fill: #fff;
      }

      .cls-2 {
        fill: #262626;
      }
    </style>
  </defs>
  <g id="Layer_1-2" data-name="Layer 1">
    <g>
      <rect class="cls-1" width="15" height="15" rx=".84" ry=".84"/>
      <path class="cls-2" d="M3.74,2.57c0-.08.05-.14.13-.16.75-.12,1.77-.2,3.19-.2,1.51,0,2.59.29,3.32.87.69.55,1.16,1.45,1.16,2.51s-.35,1.97-1,2.58c-.84.79-2.08,1.14-3.53,1.14-.24,0-.47,0-.66-.03-.09,0-.18.06-.18.16v3.47c0,.13-.11.24-.24.24h-1.96c-.13,0-.24-.11-.24-.24V2.57ZM6.17,7.24c0,.08.05.14.13.16.19.03.41.04.69.04,1.31,0,2.11-.66,2.11-1.77,0-1-.69-1.6-1.92-1.6-.4,0-.69.03-.89.07-.08.01-.13.08-.13.16v2.95Z"/>
    </g>
  </g>
</svg>