<?xml version="1.0" encoding="UTF-8"?>
<svg id="Layer_2" xmlns="http://www.w3.org/2000/svg" version="1.1" viewBox="0 0 15 15">
  <!-- Generator: Adobe Illustrator 29.4.0, SVG Export Plug-In . SVG Version: 2.1.0 Build 152)  -->
  <defs>
    <style>
      .st0 {
        fill: #fff;
      }

      .st1 {
        fill: #999;
      }
    </style>
  </defs>
  <g id="Layer_1-2">
    <g>
      <g>
        <circle class="st1" cx="7.5" cy="7.5" r="7.2"/>
        <path class="st0" d="M7.5,15C3.4,15,0,11.6,0,7.5S3.4,0,7.5,0s7.5,3.4,7.5,7.5-3.4,7.5-7.5,7.5ZM7.5.6C3.7.6.6,3.7.6,7.5s3.1,6.9,6.9,6.9,6.9-3.1,6.9-6.9S11.3.6,7.5.6Z"/>
      </g>
      <path class="st0" d="M7.8,7.3v-.2c.7,0,1.3.2,1.7.5.4.3.6.8.6,1.3s-.1.8-.4,1.2-.6.6-1.1.9c-.4.2-.9.3-1.5.3s-.7,0-.9-.1-.5-.2-.6-.3-.2-.3-.2-.5,0-.2.1-.3c0,0,.2-.1.3-.1s.3,0,.4,0,.2.1.4.3l.8.7-.6-.2c.4,0,.8,0,1.1,0s.6-.3.8-.6c.2-.3.3-.6.3-.9s-.1-.8-.4-1.1-.7-.4-1.2-.4-.2,0-.4,0c-.1,0-.2,0-.4,0v-.6c.6,0,1.1-.2,1.4-.5.3-.3.5-.6.5-1s-.1-.6-.4-.8-.5-.3-.9-.3-.6,0-.8.2c-.3.1-.5.3-.7.6l-.3-.2c.2-.4.5-.8.9-1s.9-.4,1.3-.4,1.1.2,1.4.5c.4.3.5.7.5,1.2s-.2.8-.5,1.2c-.3.3-.8.6-1.3.8h0Z"/>
    </g>
  </g>
</svg>