<?xml version="1.0" encoding="UTF-8"?>
<svg id="Layer_2" data-name="Layer 2" xmlns="http://www.w3.org/2000/svg" viewBox="0 0 15 15">
  <defs>
    <style>
      .cls-1 {
        fill: #6a0872;
      }

      .cls-2 {
        fill: #fff;
      }
    </style>
  </defs>
  <g id="Layer_1-2" data-name="Layer 1">
    <g>
      <g>
        <circle class="cls-1" cx="7.5" cy="7.5" r="7.22"/>
        <path class="cls-2" d="M7.5,15C3.36,15,0,11.64,0,7.5S3.36,0,7.5,0s7.5,3.36,7.5,7.5-3.36,7.5-7.5,7.5ZM7.5.55C3.67.55.55,3.67.55,7.5s3.12,6.95,6.95,6.95,6.95-3.12,6.95-6.95S11.33.55,7.5.55Z"/>
      </g>
      <path class="cls-2" d="M8.46,9.14c0,.5,0,.84,0,1.03s.01.33.02.41l.77.18-.04.47h-2.75l-.04-.47,1.02-.18c0-.08.01-.22.01-.41v-5.24l.25.05-2.75,3.62v-.26h4.62v.81h-5.4l-.09-.43,3.91-4.94h.48c0,.3-.02.61-.03.92s-.01.63-.01.95v3.51Z"/>
    </g>
  </g>
</svg>