<?xml version="1.0" encoding="UTF-8"?>
<svg id="Layer_2" data-name="Layer 2" xmlns="http://www.w3.org/2000/svg" viewBox="0 0 15 15">
  <defs>
    <style>
      .cls-1 {
        fill: #fff;
      }

      .cls-2 {
        fill: #ffb600;
      }
    </style>
  </defs>
  <g id="Layer_1-2" data-name="Layer 1">
    <g>
      <g>
        <circle class="cls-2" cx="7.5" cy="7.5" r="7.22"/>
        <path class="cls-1" d="M7.5,15C3.36,15,0,11.64,0,7.5S3.36,0,7.5,0s7.5,3.36,7.5,7.5-3.36,7.5-7.5,7.5ZM7.5.55C3.67.55.55,3.67.55,7.5s3.12,6.95,6.95,6.95,6.95-3.12,6.95-6.95S11.33.55,7.5.55Z"/>
      </g>
      <path class="cls-1" d="M8.09,8.73c0,.4,0,.73.01.99,0,.26.02.46.03.6.01.13.02.22.03.25l1.01.18-.04.47h-3.08l-.03-.47.98-.18c0-.05.02-.16.03-.32,0-.16.02-.38.03-.64,0-.26.01-.55.01-.88v-2.42c0-.24,0-.47-.02-.71-.01-.24-.03-.46-.04-.65l-1.07.24-.04-.54,2.23-.96c0,.25-.02.57-.03.95-.01.38-.02.87-.02,1.46v2.64Z"/>
    </g>
  </g>
</svg>