<?xml version="1.0" encoding="UTF-8"?>
<svg id="Layer_2" data-name="Layer 2" xmlns="http://www.w3.org/2000/svg" viewBox="0 0 15 15">
  <defs>
    <style>
      .cls-1 {
        fill: #fff;
      }

      .cls-2 {
        fill: #47c947;
      }
    </style>
  </defs>
  <g id="Layer_1-2" data-name="Layer 1">
    <g>
      <g>
        <circle class="cls-2" cx="7.5" cy="7.5" r="7.22"/>
        <path class="cls-1" d="M7.5,15C3.36,15,0,11.64,0,7.5S3.36,0,7.5,0s7.5,3.36,7.5,7.5-3.36,7.5-7.5,7.5ZM7.5.55C3.67.55.55,3.67.55,7.5s3.12,6.95,6.95,6.95,6.95-3.12,6.95-6.95S11.33.55,7.5.55Z"/>
      </g>
      <path class="cls-1" d="M7.82,7.28l.03-.16c.7.03,1.25.2,1.65.53.4.33.6.77.6,1.34,0,.42-.13.81-.39,1.17-.26.36-.61.64-1.05.86-.44.21-.93.32-1.47.32-.35,0-.65-.04-.92-.12-.27-.08-.48-.19-.63-.33-.15-.14-.23-.31-.23-.49,0-.13.05-.25.14-.34.09-.09.21-.14.34-.14.14,0,.26.02.36.06.1.04.22.13.38.26l.78.67-.59-.18c.42.07.79.04,1.12-.07.33-.11.59-.3.78-.55.19-.26.29-.57.29-.93,0-.45-.15-.81-.44-1.08s-.69-.4-1.19-.4c-.12,0-.24,0-.36.01-.12,0-.24.02-.36.04l-.06-.57c.63-.07,1.11-.23,1.42-.49.32-.26.48-.6.48-1.02,0-.34-.12-.61-.35-.81s-.54-.29-.94-.29c-.29,0-.56.06-.83.19-.26.13-.49.32-.69.58l-.35-.25c.19-.43.5-.77.91-1.02.41-.25.86-.37,1.35-.37.6,0,1.08.15,1.44.46.36.31.54.7.54,1.18,0,.45-.16.85-.49,1.18-.32.33-.75.59-1.28.76Z"/>
    </g>
  </g>
</svg>