<?xml version="1.0" encoding="UTF-8"?>
<svg id="Layer_2" data-name="Layer 2" xmlns="http://www.w3.org/2000/svg" viewBox="0 0 15 15">
  <defs>
    <style>
      .cls-1 {
        fill: #fff;
      }

      .cls-2 {
        fill: #3072d1;
      }
    </style>
  </defs>
  <g id="Layer_1-2" data-name="Layer 1">
    <g>
      <g>
        <circle class="cls-2" cx="7.5" cy="7.5" r="7.22"/>
        <path class="cls-1" d="M7.5,15C3.36,15,0,11.64,0,7.5S3.36,0,7.5,0s7.5,3.36,7.5,7.5-3.36,7.5-7.5,7.5ZM7.5.55C3.67.55.55,3.67.55,7.5s3.12,6.95,6.95,6.95,6.95-3.12,6.95-6.95S11.33.55,7.5.55Z"/>
      </g>
      <path class="cls-1" d="M4.99,11.24l-.05-.44c.8-.7,1.44-1.31,1.91-1.85.47-.53.82-1.03,1.03-1.48.21-.45.32-.9.32-1.34,0-.47-.13-.85-.38-1.13s-.62-.42-1.08-.42c-.71,0-1.27.34-1.69,1.01l-.35-.25c.21-.51.52-.91.94-1.2.42-.29.89-.44,1.42-.44.45,0,.86.09,1.2.28.35.18.62.44.81.76.19.32.29.7.29,1.14,0,.69-.28,1.42-.85,2.19s-1.41,1.57-2.54,2.38l.04-.19h2.65c.09,0,.18,0,.26-.01.08,0,.15-.02.2-.04l.42-1.05.52.05-.29,2.04c-.13-.02-.26-.03-.39-.03-.13,0-.28,0-.42-.01s-.31,0-.49,0h-2.52c-.16,0-.32,0-.47,0-.16,0-.31.01-.46.02Z"/>
    </g>
  </g>
</svg>