<?xml version="1.0" encoding="UTF-8"?>
<svg id="Layer_2" xmlns="http://www.w3.org/2000/svg" version="1.1" viewBox="0 0 15 15">
  <!-- Generator: Adobe Illustrator 29.4.0, SVG Export Plug-In . SVG Version: 2.1.0 Build 152)  -->
  <defs>
    <style>
      .st0 {
        fill: #fff;
      }

      .st1 {
        fill: #999;
      }
    </style>
  </defs>
  <g id="Layer_1-2">
    <g>
      <g>
        <circle class="st1" cx="7.5" cy="7.5" r="7.2"/>
        <path class="st0" d="M7.5,15C3.4,15,0,11.6,0,7.5S3.4,0,7.5,0s7.5,3.4,7.5,7.5-3.4,7.5-7.5,7.5ZM7.5.6C3.7.6.6,3.7.6,7.5s3.1,6.9,6.9,6.9,6.9-3.1,6.9-6.9S11.3.6,7.5.6Z"/>
      </g>
      <path class="st0" d="M5,11.2v-.4c.8-.7,1.4-1.3,1.9-1.9.5-.5.8-1,1-1.5.2-.4.3-.9.3-1.3s-.1-.8-.4-1.1-.6-.4-1.1-.4c-.7,0-1.3.3-1.7,1l-.3-.2c.2-.5.5-.9.9-1.2s.9-.4,1.4-.4.9,0,1.2.3c.4.2.6.4.8.8.2.3.3.7.3,1.1,0,.7-.3,1.4-.9,2.2s-1.4,1.6-2.5,2.4v-.2h2.7c0,0,.2,0,.3,0,0,0,.1,0,.2,0l.4-1.1h.5c0,0-.3,2.1-.3,2.1-.1,0-.3,0-.4,0s-.3,0-.4,0-.3,0-.5,0h-3c-.2,0-.3,0-.5,0h0Z"/>
    </g>
  </g>
</svg>