<?xml version="1.0" encoding="UTF-8"?>
<svg id="Layer_2" data-name="Layer 2" xmlns="http://www.w3.org/2000/svg" viewBox="0 0 712.2 170.64">
  <defs>
    <style>
      .cls-1 {
        fill: #111;
      }

      .cls-2 {
        fill: #ff7300;
      }

      .cls-3 {
        fill: #fff;
      }

      .cls-4 {
        fill: #a54c11;
      }
    </style>
  </defs>
  <g id="Layer_2-2" data-name="Layer 2">
    <g>
      <g>
        <g>
          <path class="cls-2" d="M415.88,76.3c-5.99-7.12-12.3-10.65-18.92-10.65-6.11,0-14.06,5.34-23.88,16.01l-4.26,4.64v-17.69h-10.9v95.94l11.18,6.09v-61.49c5.39,5.31,9.5,9.07,12.28,11.23,5.79,4.51,10.6,6.77,14.46,6.77s8.27-1.4,12.93-4.18c4.66-2.78,8.42-6.36,11.25-10.77,3.08-4.71,4.61-9.75,4.61-15.06,0-6.97-2.91-13.91-8.75-20.82ZM409.67,104.76c-5.96,6.39-12.98,9.57-21.1,9.57-2.46,0-4.99-.55-7.59-1.63-5.84-2.43-8.75-5.24-8.75-8.44,0-5.41,4.18-11.63,12.58-18.64,8.14-6.79,14.96-10.2,20.47-10.2,2.78,0,5.09.83,6.92,2.51,3.68,3.33,5.51,6.79,5.51,10.42,0,5.24-2.68,10.7-8.04,16.41Z"/>
          <path class="cls-2" d="M634.55,48.49v6.84h-284.47v-6.84h160.68v-23.9l12.58,8.9v15.01h41.37c0-13.96-3.58-25.91-10.7-35.78-4.29-5.94-8.24-10.12-11.88-12.55l14.11-.15c7.82,4.39,14.06,13.83,18.67,28.31,2.18,6.89,3.28,13.63,3.28,20.17h56.36Z"/>
          <path class="cls-2" d="M489.31,75.07c-2.98-6.01-9.7-9-20.17-9-2.53,0-5.06.23-7.62.7-1.38.25-2.61.5-3.68.7h-.05c-.35.08-.7.15-1.05.2-2.28.48-4.29,1.03-5.31,1.33-.1.03-.2.05-.28.08-.3.1-.45.15-.45.15v-11.23h-9.15v17.54c-.05.05-.18.18-.35.43-1.18,1.05-2.05,1.83-2.66,2.36v5.31c2.66-.95,5.36-2.03,8.17-3.23,6.24-2.66,13.11-4.06,20.6-4.21,3.36-.1,6.01.33,7.94,1.23,1.93.9,3.91,2.68,5.96,5.34l.15,6.89c-4.06-3.13-9.55-5.01-16.21-5.01-11,0-20.05,4.08-27.46,11.65-3.81,3.91-5.71,7.84-5.71,11.8,0,3.51,1.2,6.69,3.63,9.55,4.96,5.91,12.05,8.87,21.23,8.87,6.67,0,12.5-1.23,17.54-3.66,1.58-.75,3.61-1.88,6.06-3.33.63.43.93,1.38.93,2.91,6.42,2.73,10.12,4.26,11.1,4.66v-27.51c0-12.13-1.15-20.52-3.16-24.51ZM471.99,111.5c-7.17,4.44-15.09,6.64-23.76,6.64-6.69,0-10.55-1.73-11.53-5.21,0-1.85,1.2-4.23,3.56-7.14,5.91-7.22,13.81-10.85,23.63-10.85,2.68,0,6.06.7,10.12,2.08,4.89,1.65,7.34,3.53,7.34,5.64s-3.13,4.99-9.37,8.85Z"/>
          <path class="cls-2" d="M539.2,100.73c0,14.66-3.48,22-10.42,22-1.53,0-2.83-.85-3.91-2.51-1.03-1.53-1.53-3.11-1.53-4.71v-57.51h-12.58v52.07c0,2.61.8,5.24,2.38,7.84,3.63,6.06,8.72,9.12,15.24,9.17,11.23.03,19.52-6.01,24.86-18.14l-14.03-8.22Z"/>
          <path class="cls-2" d="M625.95,83.49c-5.64-11.43-14.13-17.14-25.49-17.14-3.03,0-5.76.45-8.17,1.35-4.34,1.63-9.05,5.26-14.11,10.92v-20.62h-13.48v61.62l13.06,7.14v-28.34c0-3.73,1.45-7.57,4.39-11.58,2.71-3.71,6.11-6.92,10.22-9.57,4.56-3.01,8.82-4.54,12.83-4.64,4.34-.1,7.69,1.65,10.07,5.29,2.08,3.08,3.11,6.94,3.06,11.55-.03,7.77-2.13,14.21-6.26,19.29-3.68,4.54-6.97,8.32-9.85,11.43l11.45,6.99c1.15-.9,2.93-2.53,5.31-4.91,7.12-7.14,10.68-15.16,10.68-24,0-4.86-1.23-9.77-3.71-14.78Z"/>
        </g>
        <path class="cls-1" d="M342.71,48.21c1.28-1.05,2.21-2.78,2.86-5.21.73-2.41,1.1-5.26,1.1-8.52,0-9.07-5.21-16.81-15.66-23.25-10.42-6.41-23.03-9.65-37.76-9.65-8.87,0-16.39,2.28-22.63,6.82-6.21,4.54-9.32,10-9.32,16.44s3.01,11.95,9.02,16.59c5.89,4.54,13.06,6.79,21.5,6.79,4.01,0,7.42-1.05,10.27-3.16,2.83-2.1,4.26-4.64,4.26-7.57,0-2.76-.9-5.11-2.68-7.12-1.8-1.9-3.96-2.86-6.49-2.86s-4.64.8-6.31,2.38c-1.8,1.58-2.68,3.46-2.68,5.69,0,1.15.3,2.31.93,3.48.65,1.05,1.55,2,2.71,2.83-3.58-.63-6.54-2.58-8.87-5.84-2.31-3.16-3.46-6.92-3.46-11.23,0-4.74,1.25-8.74,3.78-12.03,2.53-3.36,5.59-5.06,9.17-5.06,9.9,0,18.39,2.76,25.46,8.24,7.04,5.36,10.57,11.9,10.57,19.59,0,3.16-.83,5.94-2.53,8.37-1.68,2.43-3.83,3.86-6.47,4.26H0v7.12h16.44c-3.16,3.06-5.64,7.29-7.44,12.65-1.68,5.26-2.53,11.28-2.53,18.02,0,8.44,3.06,15.61,9.17,21.5,6.21,6.01,13.66,9.02,22.3,9.02,1.45,0,3.21-.23,5.21-.65-4.74,3.71-9.65,6.49-14.71,8.39-4.96,2-13.81,6.87-18.64,6.87-1.8,0-3.26.88-4.44,2.68-1.25,1.68-1.88,3.78-1.88,6.31,0,2,.68,3.68,2.05,5.06,1.35,1.38,3.03,2.05,5.04,2.05,17.62-6.41,36.84-22.4,49.79-40.22v16.61c1.38,1.15,2.86,2.05,4.44,2.68s3.11.95,4.59.95c1.25,0,2.63-.33,4.11-.95,1.48-.63,2.91-1.53,4.26-2.68V55.33h67.18v14.38c-1.05,10.22-4.16,18.82-9.32,25.78-5.16,6.84-11,10.27-17.54,10.27-2.43,0-4.54-1.05-6.31-3.16-1.7-2.13-2.53-4.71-2.53-7.77,0-6.94,1.83-12.85,5.51-17.69,3.58-4.96,7.97-7.44,13.13-7.44-1.38.85-2.43,1.95-3.16,3.33-.85,1.48-1.28,3.06-1.28,4.74,0,2.33.9,4.26,2.71,5.86,1.68,1.58,3.78,2.36,6.31,2.36s4.69-1.05,6.49-3.16c1.78-2.1,2.68-4.69,2.68-7.74,0-3.48-1.43-6.44-4.26-8.85-2.86-2.43-6.29-3.63-10.27-3.63-9.92,0-18.39,3.51-25.46,10.57-7.07,7.07-10.6,15.61-10.6,25.61,0,5.91,2.05,10.9,6.16,15.03,4.11,4.21,9.12,6.31,15.04,6.31,7.79,0,14.78-3.06,21.02-9.17,6.09-6.11,10-13.86,11.68-23.23v35.88c1.38,1.15,2.86,2.05,4.44,2.68s3.11.95,4.59.95c1.25,0,2.63-.33,4.11-.95,1.48-.63,2.91-1.53,4.26-2.68V55.33h18.67v68.31c1.35,1.15,2.83,2.05,4.41,2.68s3.11.95,4.59.95c1.28,0,2.63-.33,4.11-.95,1.48-.63,2.91-1.53,4.29-2.68V55.33h19.42c-1.45,1.7-2.58,3.33-3.31,4.91-.73,1.58-1.1,2.96-1.1,4.11,0,2.53.78,4.64,2.38,6.31,1.58,1.8,3.46,2.68,5.66,2.68,3.81,0,6.59-1.68,8.39-5.04,1.78-3.48,1.68-6.92-.33-10.27,1.05-.85,2.38-1.53,3.96-2.05,1.48-.43,3.16-.65,5.06-.65,2.96,0,5.49,1.05,7.59,3.18,2.11,2.1,3.16,4.69,3.16,7.74,0,4.74-2.28,8.75-6.79,12-4.64,3.38-10.17,5.06-16.61,5.06-3.58,0-6.59-.15-9-.48-2.43-.33-4.18-.8-5.24-1.43v8.07c.53.33,1.7.63,3.48.95,0,10.22,2.91,18.92,8.7,26.08,5.79,7.17,12.81,10.75,21.02,10.75,4.11,0,8.07-1.65,11.85-4.91,3.71-3.36,6.54-7.74,8.55-13.13h-7.27c-1.18,3.28-2.71,5.91-4.59,7.92-1.9,2-3.78,3.01-5.69,3.01-4.01,0-7.44-2.81-10.27-8.39-2.86-5.69-4.29-12.48-4.29-20.37,5.29,0,10.22-.95,14.86-2.86,4.76-1.78,8.75-4.41,12.03-7.89,1.48,1.68,3.31,3.01,5.54,3.93,2.21.95,4.59,1.43,7.09,1.43,2.13,0,4.06-.33,5.86-.95,1.9-.63,3.53-1.53,4.89-2.68v41.27c1.38,1.15,2.86,2.05,4.44,2.68s3.11.95,4.59.95c1.28,0,2.63-.33,4.11-.95,1.48-.63,2.91-1.53,4.26-2.68V55.33h18.67v68.31c1.35,1.15,2.83,2.05,4.41,2.68s3.11.95,4.59.95c1.28,0,2.63-.33,4.11-.95,1.48-.63,2.91-1.53,4.29-2.68V55.33h10.9v-7.12h-5.06ZM60.37,93.11c-1.78,4.84-4.46,8.74-8.04,11.7-3.58,2.96-7.49,4.41-11.7,4.41-4.44,0-8.17-2.21-11.23-6.62-3.16-4.33-4.74-9.6-4.74-15.81,0-5.69,1-11.28,3.01-16.76,1.98-5.36,4.84-10.27,8.52-14.71h24.18v37.79ZM283.42,72.42c-1.05,1.48-2.36,2.58-3.93,3.31-1.58.85-3.28,1.28-5.06,1.28s-3.53-.33-5.21-.95c-1.7-.63-3.23-1.53-4.59-2.71.4-1.05,1.05-2.26,1.88-3.63.65-.83.95-1.4.95-1.73,0-2.31-.58-4.59-1.73-6.79-1.15-2.23-2.73-4.16-4.74-5.86h22.43v17.09Z"/>
      </g>
      <g>
        <g>
          <path class="cls-2" d="M711.18,45.5c-1.13-4.61-3.08-8.85-5.86-12.73-2.76-3.83-6.11-7.04-10.1-9.57-5.39-3.43-11.28-5.29-17.69-5.61-5.76-.3-11.28.75-16.51,3.08-4.01,1.78-7.57,4.21-10.68,7.29-2.93,2.88-5.31,6.14-7.14,9.82-1.5,3.06-2.61,6.24-3.21,9.6-.55,3.06-.85,6.16-.4,9.25.05.38.13.78.2,1.15.25,1.3.6,2.61.9,3.91.08.25.13.5.2.75,0,.03,0,.08.02.13.08.25.18.5.25.75.13.4.25.83.4,1.23.15.4.3.85.45,1.28.28.8.55,1.63.85,2.43,1.53,3.96,3.21,7.82,5.06,11.63.08.18.15.33.23.5.85,1.8,1.73,3.58,2.63,5.36,4.03,7.94,8.42,15.66,13.11,23.23,2.96,4.79,6.04,9.52,9.07,14.26.9,1.35,1.85,2.76,2.83,4.18.03-.05.05-.08.1-.13l.05-.05c.33-.5.65-1,.98-1.5,2.71-4.18,5.46-8.34,8.14-12.53,3.78-5.96,7.39-12.03,10.75-18.22,2.38-4.39,4.69-8.82,6.92-13.28.3-.6.6-1.2.9-1.83.1-.2.2-.4.28-.6.98-2.03,1.9-4.08,2.78-6.16.7-1.68,1.38-3.36,2-5.06.08-.15.13-.3.18-.45.3-.75.58-1.53.85-2.31.03-.05.05-.1.05-.13.08-.18.15-.35.2-.53.23-.53.38-1.08.53-1.65.03-.08.05-.15.05-.23.08-.23.15-.45.2-.68.08-.28.15-.55.23-.85.08-.2.13-.4.18-.6.05-.15.08-.28.13-.43.28-.83.43-1.68.55-2.53.1-.58.18-1.18.25-1.75.35-3.53-.08-6.99-.9-10.42ZM659.66,46.76c1.03-2.73,2.63-5.04,4.79-6.97,1.35-1.18,2.88-2.13,4.51-2.91h.08c1.15-.35,2.28-.78,3.46-1.03,3.83-.85,7.52-.33,11,1.45,4.13,2.1,6.97,5.39,8.55,9.77,1.45,3.98,1.28,7.94-.23,11.88-.35.95-.88,1.83-1.3,2.73-1.63,2.56-3.68,4.66-6.37,6.11-4.61,2.53-9.42,2.91-14.36,1.08-4.54-1.7-7.77-4.84-9.75-9.25-.65-1.43-1.08-2.93-1.28-4.49-.03-.15-.08-.33-.1-.5,0-.13,0-.28-.03-.4-.23-2.58.13-5.06,1.03-7.49Z"/>
          <path class="cls-1" d="M675.79,127.41v-23.67c4.88-4.18,10.11-9.21,15.32-15.19,9.58-10.99,16.19-21.84,20.74-30.86-.86,4.35-2.14,8.24-4.59,13.83-3.26,7.45-4.81,12.62-17.13,33.6-3.39,5.78-8.3,13.36-14.34,22.28Z"/>
          <path class="cls-4" d="M675.78,127.41v-23.67c-4.88-4.18-10.11-9.21-15.32-15.19-9.58-10.99-16.19-21.84-20.74-30.86.86,4.35,2.14,8.24,4.59,13.83,3.26,7.45,4.81,12.62,17.13,33.6,3.39,5.78,8.3,13.36,14.34,22.28Z"/>
        </g>
        <g>
          <circle class="cls-3" cx="675.78" cy="52.75" r="19.4" transform="translate(619.39 728.24) rotate(-89.69)"/>
          <circle class="cls-2" cx="675.78" cy="52.75" r="17.03" transform="translate(618.7 728.18) rotate(-89.63)"/>
          <path class="cls-3" d="M691.08,53.89c.03-.38.04-.76.04-1.14,0-.35-.01-.69-.03-1.03-.44-.03-.81-.36-.87-.82-.06-.45.22-.87.64-1.01-.13-.72-.32-1.42-.55-2.1-.43.09-.88-.14-1.05-.56-.17-.42-.02-.9.36-1.14-.31-.65-.68-1.28-1.08-1.88-.39.2-.88.09-1.16-.27-.28-.36-.25-.86.04-1.19-.25-.29-.51-.57-.78-.84-.24-.25-.5-.48-.76-.71-.33.29-.83.31-1.19.04-.36-.28-.46-.77-.26-1.16-.6-.41-1.23-.78-1.88-1.1-.24.37-.72.52-1.14.35-.42-.18-.65-.63-.56-1.06-.68-.24-1.38-.43-2.1-.57-.14.42-.56.69-1.01.63-.45-.06-.78-.43-.81-.87-.38-.03-.76-.04-1.14-.04-.35,0-.69.01-1.03.04-.03.44-.36.81-.82.87-.45.06-.87-.22-1.01-.64-.72.13-1.42.32-2.1.55.09.43-.14.88-.56,1.05-.42.17-.9.01-1.14-.36-.65.31-1.28.68-1.88,1.08.2.39.09.88-.27,1.16-.36.28-.86.25-1.19-.04-.29.25-.56.51-.84.78-.24.24-.48.5-.71.76.29.33.31.83.04,1.19-.28.36-.77.46-1.16.26-.41.6-.78,1.23-1.1,1.88.37.24.52.72.35,1.14-.18.42-.63.65-1.06.55-.24.68-.43,1.38-.57,2.1.42.14.69.56.63,1.01-.06.45-.43.78-.87.81-.03.38-.04.76-.04,1.14,0,.35.01.69.04,1.03.44.03.81.36.87.82.06.45-.22.87-.64,1.01.13.72.32,1.42.55,2.1.43-.09.88.14,1.05.56.17.42.01.9-.36,1.14.31.65.68,1.28,1.08,1.88.39-.2.88-.09,1.16.27.28.36.25.86-.04,1.19.25.29.51.57.78.84.25.24.5.48.76.71.33-.29.83-.31,1.19-.04.36.28.46.77.26,1.16.6.41,1.23.78,1.88,1.1.24-.37.72-.52,1.14-.35.42.18.65.63.56,1.06.68.24,1.38.43,2.1.57.14-.42.56-.69,1.01-.63.45.06.78.43.81.87.38.03.76.04,1.14.04.35,0,.69-.01,1.03-.03.03-.44.36-.81.82-.87.45-.06.87.22,1.01.64.72-.13,1.42-.32,2.1-.55-.09-.43.14-.88.56-1.05.42-.17.9-.01,1.14.36.65-.31,1.28-.68,1.88-1.08-.2-.39-.09-.88.27-1.16.36-.28.86-.25,1.19.04.29-.25.56-.51.84-.78.25-.25.48-.5.71-.76-.29-.33-.31-.83-.04-1.19.28-.36.77-.46,1.16-.26.41-.6.78-1.23,1.1-1.88-.37-.24-.52-.72-.35-1.14.18-.42.63-.65,1.06-.56.24-.68.43-1.38.57-2.1-.42-.14-.69-.56-.63-1.01.06-.45.43-.78.87-.81Z"/>
          <path class="cls-2" d="M670.85,52.75c0-2.72,2.21-4.93,4.93-4.93s4.93,2.21,4.93,4.93-2.21,4.93-4.93,4.93-4.93-2.21-4.93-4.93Z"/>
          <path class="cls-3" d="M671.31,52.75c0-2.47,2-4.47,4.47-4.47s4.47,2,4.47,4.47-2,4.47-4.47,4.47-4.47-2-4.47-4.47Z"/>
          <circle class="cls-2" cx="675.78" cy="52.75" r="3.4" transform="translate(-.46 6.21) rotate(-.53)"/>
          <g>
            <path class="cls-2" d="M676.16,37.38h-.67s.42,4.44-.79,5.65c0,0,.86-.12.86,4.86h.53c0-4.99.86-4.86.86-4.86-1.21-1.21-.79-5.65-.79-5.65Z"/>
            <path class="cls-2" d="M676.09,57.61h-.53c0,4.99-.86,4.86-.86,4.86,1.21,1.21.79,5.65.79,5.65h.67s-.42-4.44.79-5.65c0,0-.86.12-.86-4.86Z"/>
            <path class="cls-2" d="M685.55,51.63s.12.86-4.86.86v.53c4.99,0,4.86.86,4.86.86,1.21-1.21,5.65-.79,5.65-.79v-.67s-4.44.42-5.65-.79Z"/>
            <path class="cls-2" d="M670.96,53.01v-.53c-4.99,0-4.86-.86-4.86-.86-1.21,1.21-5.65.79-5.65.79v.67s4.44-.42,5.65.79c0,0-.12-.86,4.86-.86Z"/>
            <path class="cls-2" d="M679.25,49.3l.03.03.17.17c3.53-3.53,4.05-2.83,4.05-2.83,0-1.71,3.44-4.56,3.44-4.56l-.22-.22-.03-.03-.22-.22s-2.84,3.44-4.56,3.44c0,0,.7.52-2.83,4.05l.17.17Z"/>
            <path class="cls-2" d="M672.4,56.2l-.03-.03-.17-.17c-3.53,3.53-4.05,2.83-4.05,2.83,0,1.71-3.44,4.56-3.44,4.56l.22.22.03.03.22.22s2.84-3.44,4.56-3.44c0,0-.7-.52,2.83-4.05l-.17-.17Z"/>
            <path class="cls-2" d="M683.49,58.83s-.52.7-4.05-2.83l-.17.17-.03.03-.17.17c3.53,3.52,2.83,4.04,2.83,4.04,1.71,0,4.56,3.44,4.56,3.44l.22-.22.03-.03.22-.22s-3.44-2.84-3.44-4.56Z"/>
            <path class="cls-2" d="M669.74,45.08c-1.71,0-4.56-3.44-4.56-3.44l-.22.22-.03.03-.22.22s3.44,2.84,3.44,4.56c0,0,.52-.7,4.05,2.83l.17-.17.03-.03.17-.17c-3.53-3.53-2.83-4.05-2.83-4.05Z"/>
          </g>
          <g>
            <path class="cls-2" d="M683.81,39.61l-.27-.16-.03-.02-.27-.16s-1.86,4.06-3.51,4.5c0,0,.81.32-1.69,4.64l.21.12.03.02.21.12c2.49-4.32,3.18-3.78,3.18-3.78-.44-1.65,2.15-5.29,2.15-5.29Z"/>
            <path class="cls-2" d="M673.62,57.09l-.21-.12-.04-.02-.21-.12c-2.49,4.32-3.18,3.78-3.18,3.78.44,1.65-2.15,5.29-2.15,5.29l.27.16.04.02.27.16s1.86-4.06,3.51-4.5c0,0-.81-.32,1.69-4.64Z"/>
            <path class="cls-2" d="M684.8,56.65s-.32.81-4.64-1.69l-.12.21-.02.04-.12.21c4.32,2.49,3.78,3.18,3.78,3.18,1.65-.44,5.29,2.15,5.29,2.15l.16-.27.02-.04.16-.27s-4.06-1.86-4.5-3.51Z"/>
            <path class="cls-2" d="M671.48,50.55l.12-.21.02-.04.12-.21c-4.32-2.49-3.78-3.18-3.78-3.18-1.65.44-5.29-2.15-5.29-2.15l-.16.27-.02.04-.16.27s4.06,1.86,4.5,3.51c0,0,.32-.81,4.64,1.69Z"/>
            <path class="cls-2" d="M680.52,51.48v.04s.07.23.07.23c4.82-1.29,4.92-.43,4.92-.43.86-1.48,5.26-2.22,5.26-2.22l-.08-.3v-.04s-.09-.3-.09-.3c0,0-4.18,1.56-5.67.7,0,0,.34.8-4.47,2.09l.06.23Z"/>
            <path class="cls-2" d="M671.13,54.03v-.04s-.07-.23-.07-.23c-4.82,1.29-4.92.43-4.92.43-.86,1.48-5.26,2.22-5.26,2.22l.08.3v.04s.09.3.09.3c0,0,4.18-1.56,5.67-.7,0,0-.34-.8,4.47-2.09l-.06-.23Z"/>
            <path class="cls-2" d="M679.42,61.85s-.8.34-2.09-4.47l-.23.06h-.04s-.23.07-.23.07c1.29,4.82.43,4.92.43,4.92,1.48.86,2.22,5.26,2.22,5.26l.3-.08h.04s.3-.09.3-.09c0,0-1.56-4.18-.7-5.67Z"/>
            <path class="cls-2" d="M674.4,43.07c-1.48-.86-2.22-5.26-2.22-5.26l-.3.08h-.04s-.3.09-.3.09c0,0,1.56,4.18.7,5.67,0,0,.8-.34,2.09,4.47l.23-.06h.04s.23-.07.23-.07c-1.29-4.82-.43-4.92-.43-4.92Z"/>
          </g>
          <g>
            <path class="cls-2" d="M689.3,45.35l-.16-.27-.02-.04-.16-.27s-3.64,2.59-5.29,2.15c0,0,.54.68-3.78,3.18l.12.21.02.04.12.21c4.32-2.49,4.64-1.69,4.64-1.69.44-1.65,4.5-3.51,4.5-3.51Z"/>
            <path class="cls-2" d="M671.75,55.41l-.12-.21-.02-.04-.12-.21c-4.32,2.49-4.64,1.69-4.64,1.69-.44,1.65-4.5,3.51-4.5,3.51l.16.27.02.04.16.27s3.64-2.59,5.29-2.15c0,0-.54-.68,3.78-3.18Z"/>
            <path class="cls-2" d="M681.66,60.61s-.68.54-3.18-3.78l-.21.12-.03.02-.21.12c2.49,4.32,1.69,4.64,1.69,4.64,1.65.44,3.51,4.5,3.51,4.5l.27-.16.04-.02.27-.16s-2.59-3.64-2.15-5.29Z"/>
            <path class="cls-2" d="M673.16,48.67l.21-.12.04-.02.21-.12c-2.49-4.32-1.69-4.64-1.69-4.64-1.65-.44-3.51-4.5-3.51-4.5l-.27.16-.04.02-.27.16s2.59,3.64,2.15,5.29c0,0,.68-.54,3.18,3.78Z"/>
            <path class="cls-2" d="M680.53,53.99v.04s-.07.23-.07.23c4.82,1.29,4.47,2.09,4.47,2.09,1.48-.86,5.67.7,5.67.7l.08-.3v-.04s.09-.3.09-.3c0,0-4.4-.74-5.26-2.22,0,0-.1.86-4.92-.43l-.06.23Z"/>
            <path class="cls-2" d="M671.12,51.52v-.04s.07-.23.07-.23c-4.82-1.29-4.47-2.09-4.47-2.09-1.48.86-5.67-.7-5.67-.7l-.08.3v.04s-.09.3-.09.3c0,0,4.4.74,5.26,2.22,0,0,.1-.86,4.92.43l.06-.23Z"/>
            <path class="cls-2" d="M674.4,62.43s-.86-.1.42-4.92l-.23-.06h-.04s-.23-.07-.23-.07c-1.29,4.82-2.09,4.47-2.09,4.47.86,1.48-.7,5.67-.7,5.67l.3.08h.04s.3.09.3.09c0,0,.74-4.4,2.22-5.26Z"/>
            <path class="cls-2" d="M679.42,43.65c-.86-1.48.7-5.67.7-5.67l-.3-.08h-.04s-.3-.09-.3-.09c0,0-.74,4.4-2.22,5.26,0,0,.86.1-.43,4.92l.23.06h.04s.23.07.23.07c1.29-4.82,2.09-4.47,2.09-4.47Z"/>
          </g>
        </g>
      </g>
    </g>
  </g>
</svg>