<?xml version="1.0" encoding="UTF-8"?>
<svg id="Layer_2" data-name="Layer 2" xmlns="http://www.w3.org/2000/svg" viewBox="0 0 24 24">
  <defs>
    <style>
      .cls-1 {
        fill: #fff;
      }

      .cls-2 {
        fill: #262626;
        fill-rule: evenodd;
      }
    </style>
  </defs>
  <g id="Layer_1-2" data-name="Layer 1">
    <rect class="cls-1" width="24" height="24" rx="1.34" ry="1.34"/>
    <path class="cls-2" d="M1.72,1.71h7.49v7.46H1.72V1.71h0ZM20.4,20.41h1.91v1.88h-1.91v-1.88h0ZM16.73,20.41h1.91v1.79h-3.82v-3.66h1.85v-1.86h1.88v-3.7h1.91v1.82h1.82v1.88h-1.82v1.88h-3.73v1.85h0ZM11.06,16.65h1.85v-1.88h-1.79v-1.88h1.79v-1.88h-1.82v1.88h-1.91v-1.88h1.88v-5.58h1.91v5.58h1.85v1.88h1.82v-1.88h1.91v1.88h-1.81v1.88h-1.91v3.7h-1.85v3.73h-1.91v-5.55h0ZM20.36,11.02h1.91v1.88h-1.91v-1.88h0ZM5.45,11.02h1.91v1.88h-1.91v-1.88h0ZM1.72,11.02h1.91v1.88h-1.91v-1.88h0ZM11.06,1.71h1.91v1.88h-1.91v-1.88h0ZM1.69,14.8h7.49v7.46H1.69v-7.46h0ZM3.51,16.61h3.85v3.83h-3.85v-3.83h0ZM14.79,1.71h7.49v7.46h-7.49V1.71h0ZM16.61,3.52h3.85v3.83h-3.85v-3.83h0ZM3.54,3.52h3.85v3.83h-3.85v-3.83h0Z"/>
  </g>
</svg>