<?xml version="1.0" encoding="UTF-8"?>
<svg id="Objects" xmlns="http://www.w3.org/2000/svg" viewBox="0 0 952.68 453.2">
  <defs>
    <style>
      .cls-1 {
        fill: #fff;
      }

      .cls-2 {
        font-family: BerlinSansFBDemi-Bold, 'Berlin Sans FB Demi';
        font-size: 76.84px;
        font-weight: 700;
      }

      .cls-3 {
        fill: #f2f2f2;
      }
    </style>
  </defs>
  <g id="Design">
    <g>
      <path class="cls-3" d="M380.37,250.26c-17.9-8.39-35.45-17.51-52.68-27.18-17.21-9.7-34.17-19.78-51.46-29.17-17.28-9.33-34.92-18.16-53.52-23.71-9.29-2.75-18.81-4.56-28.37-4.99-3.93-.17-7.85-.07-11.75.28,1.04-.02,1.9,0,2.55,0,0,0-16.74.79-36.74,10.44-9.88,5.25-19.02,12.08-27.34,19.69,4.02.97,8.09,1.85,12.15,2.64,6.07,1.17,12.19,2.15,18.34,2.86,6.15.71,12.34,1.16,18.54,1.18,6.2,0,12.43-.4,18.54-1.71-5.97,1.87-12.21,2.87-18.46,3.44-6.26.56-12.57.69-18.86.55-6.29-.14-12.58-.56-18.85-1.17-5.72-.57-11.37-1.29-17.11-2.24-1.98,2.02-3.9,4.09-5.78,6.21-.23.3-.46.59-.68.89,0,0,60.93,15.41,118.11-4.91,0,0-17.9,41.72-78.55,46.58-43.66,3.5-59.55-2.01-65.02-5.36-.16.28-.33.56-.49.85-5.11,9.34-9.68,19.05-13.32,29.04-.23.95-.35,2.05-.25,2.94.12,1.34.59,2.49,1.42,3.5,1.65,2.04,4.91,3.35,8.36,3.99,7.02,1.27,14.77.66,22.31-.35,7.6-1.05,15.12-2.68,22.7-4.52l22.84-5.37c30.51-7.05,61.51-12.59,92.79-15.03,31.27-2.5,62.73-2.09,93.88,1.01,26.43,2.61,66.47,10.47,92.3,16.47,0,0-53.48-21.89-72.38-30.85-9.45-4.57-18.82-9.32-28.08-14.23-9.19-4.95-18.53-9.55-27.99-13.91-9.49-4.29-19.12-8.28-29.01-11.51-4.94-1.65-9.94-3.09-15.04-4.18-2.55-.55-5.12-.99-7.7-1.29-2.58-.31-5.2-.55-7.8-.28,5.19-.9,10.52-.35,15.72.37,5.21.76,10.37,1.89,15.46,3.22,10.17,2.75,20.1,6.33,29.81,10.38,9.73,4,19.21,8.58,28.58,13.33,9.3,4.78,18.62,9.48,28.05,13.94,18.42,8.83,37.61,18.26,57.29,23.49,5.69,1.51,23.05,4.88,23.05,4.88-7.14-.98-26.84-7.88-28.35-8.47-9.21-3.58-18.27-7.54-27.23-11.72ZM353.88,256.64c.09-.83.36-1.73.91-2.45.51-.71,1.48-1.46,2.63-1.27,1.13.27,1.53,1.16,1.73,1.87.21.75.24,1.51.17,2.25-.06.74-.22,1.49-.56,2.19-.33.67-.88,1.5-2.03,1.59-1.17.02-1.99-.87-2.38-1.64-.42-.81-.53-1.7-.48-2.55ZM340.33,251.4c.11-1.07.39-2.16.94-3.14.27-.49.62-.96,1.05-1.35.7-.77,1.85-1.52,3.15-1.32,1.28.25,1.92,1.19,2.31,2.01.27.44.46.93.6,1.42.27.98.32,2.01.23,3.01-.08,1-.31,2.01-.74,2.94-.22.46-.49.92-.83,1.31-.52.75-1.31,1.58-2.62,1.64-1.32,0-2.32-.91-2.88-1.78-.35-.46-.62-.96-.8-1.49-.37-1.05-.47-2.16-.4-3.24ZM324.85,246.02c.16-1.59.59-3.19,1.45-4.62.42-.71.97-1.38,1.64-1.92.88-.84,2.21-1.59,3.67-1.38,1.44.24,2.31,1.21,2.87,2.15.48.63.8,1.35,1.04,2.08.46,1.47.58,3.01.44,4.53-.13,1.51-.5,3.03-1.21,4.41-.36.69-.8,1.35-1.38,1.9-.72.84-1.74,1.66-3.21,1.69-1.46-.02-2.66-.95-3.38-1.91-.57-.64-.99-1.37-1.29-2.14-.6-1.53-.76-3.17-.64-4.78ZM305.53,240.35c.21-2.11.79-4.22,1.95-6.09.57-.94,1.3-1.8,2.22-2.49,1.06-.91,2.59-1.65,4.2-1.44,1.59.23,2.7,1.24,3.44,2.28.68.82,1.14,1.77,1.48,2.74.67,1.95.83,4.02.66,6.05-.17,2.02-.69,4.05-1.68,5.87-.5.91-1.12,1.78-1.93,2.49-.92.92-2.17,1.75-3.8,1.74-1.6-.04-2.99-.99-3.89-2.05-.78-.82-1.35-1.78-1.76-2.78-.82-2.02-1.04-4.19-.88-6.31ZM286.21,234.68c.25-2.63.99-5.26,2.45-7.57.72-1.15,1.65-2.22,2.8-3.05,1.25-.98,2.95-1.71,4.72-1.5,1.76.23,3.09,1.26,4.01,2.42.89,1.01,1.49,2.19,1.93,3.41.87,2.43,1.09,5.03.87,7.56-.22,2.54-.88,5.06-2.15,7.34-.65,1.13-1.44,2.21-2.49,3.08-1.11,1-2.59,1.83-4.38,1.78-1.75-.05-3.33-1.03-4.39-2.19-1-1-1.72-2.19-2.24-3.44-1.04-2.5-1.32-5.2-1.12-7.84ZM263.04,228.72c.3-3.15,1.19-6.29,2.94-9.05.87-1.37,1.99-2.64,3.39-3.62,1.43-1.05,3.33-1.78,5.24-1.56,1.91.22,3.48,1.29,4.58,2.55,1.09,1.2,1.82,2.62,2.37,4.07,1.07,2.92,1.34,6.04,1.07,9.08-.26,3.04-1.06,6.08-2.62,8.81-.78,1.35-1.75,2.64-3.03,3.66-1.31,1.09-3.02,1.91-4.97,1.83-1.89-.07-3.66-1.07-4.89-2.32-1.21-1.18-2.09-2.6-2.72-4.08-1.26-2.99-1.61-6.22-1.36-9.37ZM241.39,212.09c1.02-1.59,2.33-3.06,3.97-4.19,1.62-1.12,3.7-1.84,5.77-1.62,2.07.21,3.87,1.31,5.15,2.69,1.29,1.39,2.17,3.04,2.81,4.73,1.27,3.4,1.6,7.05,1.29,10.6-.31,3.56-1.26,7.1-3.09,10.27-.93,1.57-2.07,3.07-3.59,4.25-1.51,1.17-3.44,1.99-5.56,1.88-2.03-.09-3.99-1.11-5.39-2.46-1.42-1.36-2.46-3-3.2-4.73-1.48-3.47-1.89-7.23-1.6-10.9.35-3.66,1.39-7.32,3.45-10.53Z"/>
      <path d="M427.71,290.93c19.61,1.78,38.91,4.99,58.07,9.73-24.16-6.93-48.07-11.12-74.38-12.94v2.13c5.45.26,11.01.61,16.31,1.09Z"/>
      <path d="M421.21,266.89c4.72,1.45,9.66,2.86,14.56,3.55-4.85-.88-9.82-2.48-14.47-4.1-3.24-1.16-6.27-2.41-9.9-3.71v1.02c3.63,1.14,6.64,2.23,9.81,3.24Z"/>
      <path d="M425.24,277.1c-4.6-1.17-8.4-2.28-13.84-3.35v.27c5.45.98,9.24,2.01,13.84,3.08Z"/>
      <path d="M79.82,351c5.23,1.28,10.53,1.44,15.68,1.12,5.18-.34,10.1-1.16,15.04-2.07,5.29-1.01,10.53-1.62,15.73-3.44h-56.8c3.19,2.72,6.76,3.5,10.35,4.38Z"/>
      <path d="M435.57,286.7c18.82,2.86,37.74,6.39,56.37,10.69-18.14-6.02-37.02-10.77-55.86-14.25-8.09-1.52-15.6-2.8-24.67-3.88v4.31c9.08.91,16.25,1.95,24.17,3.12Z"/>
      <path d="M411.98,269.17c10.15,2.85,20.71,4.97,31.17,6.19,10.47,1.13,21.09,1.54,31.56,1.01-20.95-.77-41.94-4.36-61.75-10.66-.41-.13-.65-.27-1.56-.41v3.8c.91.02.51.04.58.06Z"/>
      <path d="M151.72,361.39c-17.08,8.87-33.75,18.47-50.04,28.7-15.86,10.91-31.37,22.27-46.19,34.48,15.98-10.65,32.1-21.01,48.68-30.57,16.15-10.23,32.74-19.68,49.69-28.5,12.99-6.76,26.21-12.52,39.63-18.87h-11.32c-10.27,4.54-20.43,9.55-30.44,14.77Z"/>
      <path d="M428.84,298.82c19.08.05,38.42,1.21,57.32,4.54-9.23-2.65-18.62-4.44-28.13-5.89-9.52-1.45-19.43-2.52-29.05-3.26-5.75-.23-11.22-.32-17.57-.33v4.62c6.35,0,11.76.1,17.44.33Z"/>
      <path d="M40.07,348.97c-4.9,2.75-9.49,5.77-14.15,8.89-4.61,3.19-9.09,6.47-13.44,10.02-4.37,3.52-8.57,7.23-12.48,11.33,5.06-2.56,9.89-5.43,14.63-8.39,4.76-2.94,9.4-6.04,14.02-9.14,4.58-3.18,8.9-6.35,13.37-9.7,4.43-3.28,9.09-6.64,12.72-10.33v-.08c-4.54,2.11-9.86,4.66-14.68,7.4Z"/>
      <path d="M252.96,309.23c38.02-10.02,76.5-17.17,115.79-19.23,14.32-.78,29.03-.85,42.64-.16v-2.13c-13.61-1.04-28.4-1.33-42.78-.9-39.61,1.25-78.69,8.04-117.09,17.49-19.21,4.74-38.16,10.1-57.07,15.8-17.84,5.37-35.54,10.99-53.39,15.98,20.46-7.56,40.71-15.5,61.28-22.56,25.31-8.76,51.01-16.52,77.23-22.02,26.19-5.49,52.99-8.75,79.83-8.01-26.83-1.3-53.75,1.4-80.15,6.37-26.43,4.97-52.38,12.22-77.95,20.48-25.59,8.2-50.75,17.77-76.11,26.18-6.33,2.03-12.74,4.09-19.08,5.46-6.36,1.36-12.85,2.06-19.09,1.41-6.22-.62-12.16-2.77-16.59-6.73-2.21-1.97-4.05-4.34-5.45-6.97-.7-1.32-1.29-2.7-1.77-4.11-.47-1.37-.86-2.96-1.01-4.15h-.1c-1.07-7.07-.54-14.6.67-21.91.04-.25.1-.5.14-.75.1,1.16.2,1.87.2,1.87,0,0,6.5,21.33,65.73.26,105.92-37.68,164.01-39,199.8-38.91,1.64.12,2.9.24,4.53.37,26.41,2.11,52.83,6.13,78.24,11.64v-.27c-25.41-5.99-51.65-10.51-78.08-13.11-31.15-3.1-62.43-3.51-93.69-1.01-31.28,2.44-62.18,7.98-92.7,15.03l-22.8,5.37c-7.58,1.84-15.08,3.47-22.68,4.52-7.54,1-15.28,1.61-22.3.35-3.45-.64-6.7-1.95-8.35-3.99-.83-1-1.29-2.16-1.41-3.5-.1-.89.02-1.99.25-2.94,3.64-9.98,8.21-19.7,13.32-29.04.16-.28.33-.56.49-.85,5.48,3.36,21.36,8.86,65.02,5.36,60.64-4.86,78.55-46.58,78.55-46.58-57.18,20.32-118.11,4.91-118.11,4.91.23-.3.46-.59.68-.89,1.88-2.12,3.81-4.19,5.78-6.21,5.73.95,11.39,1.67,17.11,2.24,6.27.61,12.56,1.03,18.85,1.17,6.29.14,12.59.01,18.86-.55,6.25-.57,12.49-1.57,18.46-3.44-6.11,1.31-12.34,1.71-18.54,1.71-6.2-.02-12.39-.47-18.54-1.18-6.15-.71-12.27-1.69-18.34-2.86-4.06-.79-8.14-1.67-12.15-2.64,8.32-7.61,17.46-14.44,27.34-19.69,20-9.65,36.74-10.44,36.74-10.44-.65-.01-1.51-.02-2.55,0,3.9-.35,7.83-.45,11.75-.28,9.56.43,19.08,2.24,28.37,4.99,18.6,5.55,36.25,14.38,53.52,23.71,17.29,9.39,34.25,19.46,51.46,29.17,17.23,9.67,34.78,18.79,52.68,27.18,8.96,4.17,17.64,8.14,26.85,11.72,1.51.58,3.26,1.13,4.17,1.68v-1.02c-.91-.56-2.38-1.13-3.75-1.71-9.08-3.83-17.79-8.04-26.59-12.46-17.61-8.84-34.66-18.56-51.65-28.52-16.99-9.97-33.76-20.31-51-30.04-17.25-9.66-34.93-18.93-54.11-24.99-9.57-2.99-19.53-5.13-29.7-5.59-10.15-.51-20.44.64-30.23,3.5-9.8,2.84-19.05,7.3-27.57,12.72-8.53,5.47-16.36,11.74-23.64,18.76-14.42,14.08-26.25,30.44-36.06,47.87-4.88,8.74-9.22,17.79-12.87,27.15-.18.47-.35.94-.53,1.41l-.12-.05c-.28.73-.47,1.37-.62,2-3.05,8.32-5.74,16.9-7.2,25.75-.29,1.86-.11,3.74-1.02,5.63v16.9c.91.43,0,.87,0,1.3v.02c.91,1.34.77,2.49,1.1,3.6.26,1.14.7,2.28,1.04,3.42,1.58,5.11,4.4,10.19,8.46,14.04,1.25,1.2,2.68,2.38,4.11,3.29h56.8c4.45-.91,8.88-2.37,13.28-3.6,38.12-10.85,75.32-23.87,113.42-33.79Z"/>
      <path d="M322.05,275.65c-19.12,1.03-38.23,3.11-56.92,7.21,9.49-1.15,18.98-2.01,28.5-2.51,9.51-.59,19.03-.93,28.54-1.11,19.03-.3,37.69.11,56.66,1.39,11,.7,21.66,1.7,32.55,2.95v-4.31c-10.89-1.43-21.35-2.51-32.26-3.25-19.13-1.2-37.95-1.42-57.09-.37Z"/>
      <path d="M327.56,228.14c-9.36-4.75-18.84-9.33-28.58-13.33-9.71-4.05-19.64-7.63-29.81-10.38-5.1-1.33-10.25-2.46-15.46-3.22-5.19-.72-10.53-1.26-15.72-.37,2.61-.27,5.22-.03,7.8.28,2.59.3,5.15.75,7.7,1.29,5.09,1.09,10.1,2.54,15.04,4.18,9.89,3.23,19.53,7.22,29.01,11.51,9.46,4.35,18.81,8.96,27.99,13.91,9.26,4.91,18.25,9.66,27.7,14.23,18.9,8.96,39.1,17.21,58.16,22.87v-3.8c-19.06-6.23-37.75-14.41-56.17-23.24-9.43-4.46-18.37-9.17-27.67-13.94Z"/>
      <path d="M239.55,233.52c.74,1.73,1.78,3.37,3.2,4.73,1.4,1.35,3.36,2.37,5.39,2.46,2.12.11,4.06-.72,5.56-1.88,1.52-1.18,2.66-2.68,3.59-4.25,1.83-3.17,2.78-6.72,3.09-10.27.31-3.56-.02-7.2-1.29-10.6-.65-1.69-1.52-3.34-2.81-4.73-1.28-1.38-3.08-2.48-5.15-2.69-2.07-.22-4.15.5-5.77,1.62-1.64,1.13-2.94,2.6-3.97,4.19-2.06,3.2-3.1,6.86-3.45,10.53-.29,3.67.12,7.43,1.6,10.9Z"/>
      <path d="M267.13,242.17c1.23,1.26,3,2.25,4.89,2.32,1.96.07,3.66-.75,4.97-1.83,1.28-1.02,2.25-2.31,3.03-3.66,1.55-2.72,2.36-5.76,2.62-8.81.27-3.04,0-6.16-1.07-9.08-.55-1.45-1.28-2.87-2.37-4.07-1.1-1.27-2.67-2.34-4.58-2.55-1.92-.22-3.81.51-5.24,1.56-1.39.98-2.51,2.25-3.39,3.62-1.76,2.76-2.65,5.91-2.94,9.05-.24,3.15.1,6.38,1.36,9.37.63,1.48,1.52,2.9,2.72,4.08Z"/>
      <path d="M289.57,245.95c1.06,1.16,2.64,2.13,4.39,2.19,1.79.04,3.27-.78,4.38-1.78,1.05-.87,1.84-1.95,2.49-3.08,1.27-2.28,1.93-4.8,2.15-7.34.22-2.53,0-5.13-.87-7.56-.44-1.21-1.04-2.4-1.93-3.41-.92-1.16-2.26-2.19-4.01-2.42-1.76-.21-3.47.52-4.72,1.5-1.15.84-2.08,1.9-2.8,3.05-1.46,2.32-2.2,4.95-2.45,7.57-.2,2.63.08,5.34,1.12,7.84.52,1.25,1.25,2.44,2.24,3.44Z"/>
      <path d="M308.17,249.44c.9,1.06,2.28,2.01,3.89,2.05,1.63,0,2.88-.82,3.8-1.74.81-.71,1.43-1.58,1.93-2.49.99-1.83,1.51-3.85,1.68-5.87.18-2.03.01-4.1-.66-6.05-.34-.97-.8-1.92-1.48-2.74-.74-1.04-1.85-2.05-3.44-2.28-1.61-.21-3.13.53-4.2,1.44-.91.69-1.65,1.55-2.22,2.49-1.16,1.87-1.74,3.99-1.95,6.09-.16,2.12.06,4.29.88,6.31.41,1,.98,1.97,1.76,2.78Z"/>
      <path d="M326.78,252.93c.73.96,1.93,1.89,3.38,1.91,1.47-.03,2.49-.85,3.21-1.69.58-.55,1.02-1.21,1.38-1.9.71-1.38,1.08-2.89,1.21-4.41.14-1.52.02-3.06-.44-4.53-.24-.73-.56-1.45-1.04-2.08-.56-.94-1.43-1.9-2.87-2.15-1.46-.2-2.79.54-3.67,1.38-.67.54-1.21,1.2-1.64,1.92-.85,1.43-1.29,3.03-1.45,4.62-.12,1.6.04,3.24.64,4.78.3.76.72,1.5,1.29,2.14Z"/>
      <path d="M341.53,256.13c.56.87,1.57,1.78,2.88,1.78,1.31-.06,2.1-.88,2.62-1.64.34-.39.61-.85.83-1.31.43-.93.66-1.94.74-2.94.09-1,.04-2.03-.23-3.01-.14-.49-.33-.98-.6-1.42-.38-.83-1.02-1.76-2.31-2.01-1.31-.2-2.46.55-3.15,1.32-.43.39-.77.86-1.05,1.35-.55.98-.84,2.08-.94,3.14-.07,1.09.02,2.2.4,3.24.19.53.45,1.03.8,1.49Z"/>
      <path d="M356.75,260.83c1.15-.09,1.71-.92,2.03-1.59.33-.71.5-1.45.56-2.19.07-.74.04-1.5-.17-2.25-.2-.71-.61-1.61-1.73-1.87-1.16-.19-2.12.56-2.63,1.27-.56.73-.82,1.62-.91,2.45-.05.85.06,1.74.48,2.55.39.77,1.21,1.66,2.38,1.64Z"/>
      <path d="M258.41,317.61c-26.04,7.91-51.5,18.13-76.25,29.02h11.32c21.6-9.08,43.72-17.75,66.27-24.6,36.55-11.09,73.84-18.64,111.89-21.82,13.35-1.11,27.05-1.72,39.76-1.71v-4.62c-12.71-.01-26.67.61-40.14,1.73-38.41,3.2-76.01,10.82-112.85,22Z"/>
    </g>
  </g>
  <rect class="cls-1" x="360.26" y="118.2" width="229" height="335"/>
  <text class="cls-2" transform="translate(380.51 239.22)"><tspan x="0" y="0">Internal Railway</tspan><tspan x="0" y="92.21">Navigation</tspan></text>
</svg>