<?xml version="1.0" encoding="UTF-8"?>
<svg id="Layer_2" xmlns="http://www.w3.org/2000/svg" version="1.1" viewBox="0 0 19.7 19.7">
  <!-- Generator: Adobe Illustrator 29.1.0, SVG Export Plug-In . SVG Version: 2.1.0 Build 142)  -->
  <defs>
    <style>
      .st0 {
        fill: #fff;
      }
    </style>
  </defs>
  <g id="Layer_1-2">
    <path class="st0" d="M1.3,9.9H0C0,4.4,4.4,0,9.9,0s5.9,1.4,7.7,3.7v-1.5h1.3v4.7h-4.7v-1.3h3c-1.5-2.6-4.3-4.3-7.4-4.3-4.7,0-8.5,3.8-8.5,8.5ZM18.4,9.9c0,4.7-3.8,8.5-8.5,8.5s-5.9-1.6-7.4-4.3h3v-1.3H.8v4.7h1.3v-1.5c3.4,4.3,9.6,5,13.9,1.6,2.4-1.9,3.7-4.7,3.7-7.7,0,0-1.3,0-1.3,0Z"/>
  </g>
</svg>