<?xml version="1.0" encoding="UTF-8"?>
<svg id="Layer_2" data-name="Layer 2" xmlns="http://www.w3.org/2000/svg" viewBox="0 0 15 15">
  <defs>
    <style>
      .cls-1 {
        fill: #fff;
      }

      .cls-2 {
        fill: #262626;
      }
    </style>
  </defs>
  <g id="Layer_1-2" data-name="Layer 1">
    <g>
      <rect class="cls-1" width="15" height="15" rx=".84" ry=".84"/>
      <g>
        <path class="cls-2" d="M4.23,1.27h6.53c.1,0,.17.08.17.17v1.02h-6.88v-1.02c0-.1.08-.17.17-.17Z"/>
        <path class="cls-2" d="M4.23,12.53h6.53c.1,0,.17.08.17.17v1.02h-6.88v-1.02c0-.1.08-.17.17-.17Z" transform="translate(15 26.26) rotate(180)"/>
        <rect class="cls-2" x="4.06" y="2.88" width="6.88" height="1.2"/>
        <rect class="cls-2" x="4.06" y="4.49" width="6.88" height="1.2"/>
        <rect class="cls-2" x="4.06" y="6.1" width="6.88" height="1.2"/>
        <rect class="cls-2" x="4.06" y="7.71" width="6.88" height="1.2"/>
        <rect class="cls-2" x="4.06" y="9.31" width="6.88" height="1.2"/>
        <rect class="cls-2" x="4.06" y="10.92" width="6.88" height="1.2"/>
      </g>
    </g>
  </g>
</svg>