<?xml version="1.0" encoding="UTF-8"?>
<svg id="Layer_2" data-name="Layer 2" xmlns="http://www.w3.org/2000/svg" viewBox="0 0 15 15">
  <defs>
    <style>
      .cls-1 {
        fill: #fff;
      }

      .cls-2 {
        fill: #262626;
      }
    </style>
  </defs>
  <g id="Layer_1-2" data-name="Layer 1">
    <g>
      <rect class="cls-1" width="15" height="15" rx=".84" ry=".84"/>
      <path class="cls-2" d="M7.47,1.92c.94,0,1.71.76,1.71,1.71s-.76,1.71-1.71,1.71-1.71-.76-1.71-1.71.76-1.71,1.71-1.71ZM4.72,8.31c0-.13.08-.21.21-.21s.21.08.21.21v4.77h4.69v-4.77c0-.13.08-.21.21-.21s.21.08.21.21v4.77h1.49v-5.2c0-1.18-.96-2.13-2.13-2.13h-.43l-1.25,1.95-.15-1.46.21-.49h-.92l.21.49-.16,1.47-1.25-1.96h-.5c-1.18,0-2.13.96-2.13,2.13v5.2h1.49v-4.77h0Z"/>
    </g>
  </g>
</svg>