<?xml version="1.0" encoding="UTF-8"?>
<svg id="Layer_2" data-name="Layer 2" xmlns="http://www.w3.org/2000/svg" viewBox="0 0 15 15">
  <defs>
    <style>
      .cls-1 {
        fill: #fff;
      }

      .cls-2 {
        fill: #262626;
      }
    </style>
  </defs>
  <g id="Layer_1-2" data-name="Layer 1">
    <g>
      <rect class="cls-1" width="15" height="15" rx=".84" ry=".84"/>
      <g>
        <g>
          <path class="cls-2" d="M12.57,7.14h-6.83v.81h6.83c.2,0,.36-.18.36-.4,0-.22-.16-.4-.36-.4Z"/>
          <path class="cls-2" d="M8.22,6.17s0,0,0,0c-.04.04-.1.08-.16.09l-1.21.34h-.06s-.22.05-.22.05c-.18.03-.35-.05-.44-.21l-.74-1.3s-.02-.02-.03-.01c-.01,0-.02.01-.02.03,0,.34,0,1.75,0,7.13,0,.29-.24.52-.53.51-.27-.02-.48-.26-.48-.53v-4.01h-.22v4.01c0,.27-.21.52-.48.53-.29.02-.53-.22-.53-.51v-7.08s-.04-.08-.08-.08-.09.04-.09.08v3.1c0,.23-.2.42-.43.42h0c-.23,0-.41-.19-.41-.42v-3.1c0-.55.46-.99,1.01-.99h2.3c.27,0,.52.15.66.38l.67,1.17,1.13-.32c.2-.05.42.09.48.31h0c.04.15,0,.3-.09.4Z"/>
          <path class="cls-2" d="M4.21,2.19c-.48,0-.87.39-.87.87,0,.29.15.57.4.73.14.09.3.14.47.14s.34-.05.47-.14c.25-.16.4-.43.4-.73,0-.48-.39-.87-.87-.87Z"/>
        </g>
        <path class="cls-2" d="M9.91,3.45h.3c.66,0,1.2.54,1.2,1.2v2.34h-2.71v-2.34c0-.66.54-1.2,1.2-1.2Z"/>
      </g>
    </g>
  </g>
</svg>