<?xml version="1.0" encoding="UTF-8"?>
<svg id="Layer_1" data-name="Layer 1" xmlns="http://www.w3.org/2000/svg" viewBox="0 0 33.91 27.97">
  <defs>
    <style>
      .cls-1 {
        fill: #fff;
      }
    </style>
  </defs>
  <path class="cls-1" d="M12.44,27.97h-7.05c-1.1,0-1.92-1.1-1.67-2.24.26-1.21.47-2.42.34-3.72-.22-2.19-1.72-3.34-2.63-5.17C-1.42,11.11-.09,2.97,6.12.67c5.01-1.85,11.88.11,13.24,6.17.29,1.3-.27,2.04,0,2.96.29,1,2.33,3.3,2.43,4.07.16,1.23-1.69,1.23-1.87,1.53-.41.66.38,1.76.15,2.09l-1.74.65,1.65.91c.07.25-.37.76-.4,1.18-.1,1.1.71,1.97-.37,2.99-1.38,1.3-3.94-.08-4.69.75-.32.35-.34,1.28-.35,2.18-.01,1.01-.78,1.82-1.72,1.82Z"/>
  <path class="cls-1" d="M29.89,8.64c.7-.13,2.05,1.97,2.38,2.55,2.09,3.64,2.21,8.02.22,11.74-.29.54-1.9,2.87-2.46,2.87-.42,0-.69-.52-.58-.91.06-.22,1.77-2.16,2.12-2.87,1.69-3.43,1.41-7.48-.66-10.67-.52-.81-2.19-2.05-1.03-2.7Z"/>
  <path class="cls-1" d="M26.79,10.52c1.18-.39,2.68,2.58,2.99,3.49,1.19,3.49.35,7.63-2.52,10.03-1.74-.42.08-1.67.6-2.49,1.54-2.47,1.63-5.42.35-8.02-.31-.62-1.73-2.27-1.71-2.59.02-.21.09-.34.3-.41Z"/>
  <path class="cls-1" d="M23.78,22.17c-.64-.4.79-1.8,1.04-2.27,1.37-2.65.51-4.94-1.21-7.1.69-1.61,2.11.68,2.47,1.49.74,1.67.83,3.65.22,5.37-.25.71-1.58,3.09-2.52,2.51Z"/>
</svg>