<?xml version="1.0" encoding="UTF-8"?>
<svg id="Layer_2" data-name="Layer 2" xmlns="http://www.w3.org/2000/svg" viewBox="0 0 15 15">
  <defs>
    <style>
      .cls-1 {
        fill: #fff;
      }

      .cls-2 {
        fill: #262626;
      }
    </style>
  </defs>
  <g id="Layer_1-2" data-name="Layer 1">
    <g>
      <rect class="cls-1" width="15" height="15" rx=".84" ry=".84"/>
      <g>
        <circle class="cls-2" cx="4.97" cy="2.85" r="1.26"/>
        <path class="cls-2" d="M8.9,8.06h-2.11l-.57-2.83c-.34-1.47-2.41-1.04-2.19.41l.66,3.29c.1.5.5.93,1.13.93h2.7v2.99c0,.95,1.33.95,1.33.02v-3.86c0-.46-.32-.95-.94-.95Z"/>
        <path class="cls-2" d="M7.51,10.09h-1.77c-.64,0-1.18-.38-1.33-1.1l-.58-2.81c-.14-.69-1.11-.46-.98.21l.61,2.93c.25,1.1,1.19,1.8,2.13,1.8h1.94c.68,0,.68-1.04-.02-1.04Z"/>
        <path class="cls-2" d="M10.14,1.45c-1.12,0-2.02.91-2.02,2.02s.91,2.02,2.02,2.02,2.02-.91,2.02-2.02c0-1.11-.91-2.02-2.02-2.02ZM10.14,5.12c-.91,0-1.64-.74-1.64-1.64s.74-1.64,1.64-1.64,1.64.74,1.64,1.64c0,.91-.75,1.64-1.64,1.64Z"/>
        <path class="cls-2" d="M10.98,3.05l-.8.36v-.94c0-.15-.22-.14-.22,0v1.13c0,.08.09.15.17.1l.94-.45c.13-.07.05-.27-.09-.2Z"/>
      </g>
    </g>
  </g>
</svg>