<?xml version="1.0" encoding="UTF-8"?>
<svg id="Layer_2" data-name="Layer 2" xmlns="http://www.w3.org/2000/svg" viewBox="0 0 15 15">
  <defs>
    <style>
      .cls-1 {
        fill: #fff;
      }

      .cls-2 {
        fill: #262626;
      }
    </style>
  </defs>
  <g id="Layer_1-2" data-name="Layer 1">
    <g>
      <rect class="cls-1" width="15" height="15" rx=".84" ry=".84"/>
      <g>
        <g>
          <circle class="cls-2" cx="11.21" cy="3.29" r=".83"/>
          <path class="cls-2" d="M13.25,5.32c0-.52-.43-.94-.96-.94h-2.15c-.53,0-.96.42-.96.95v2.94c0,.22.18.4.4.4s.4-.18.4-.4v-2.94c0-.08.08-.15.17-.15v6.88c0,.27.22.48.48.48s.48-.22.48-.48v-3.84h.21v3.84c0,.27.22.48.48.48s.48-.22.48-.48v-6.88c.08,0,.17.07.17.14v2.94c0,.22.18.4.4.4s.4-.18.4-.4v-2.95Z"/>
        </g>
        <g>
          <circle class="cls-2" cx="4.33" cy="3.31" r=".83"/>
          <path class="cls-2" d="M6.88,7.84s-.66-1.8-.94-2.63c-.18-.54-.49-.81-.92-.81h-1.38c-.43,0-.74.27-.92.81-.29.83-.94,2.61-.94,2.63-.08.21.03.43.24.51.21.08.43-.03.51-.24,0-.01.37-1.02.68-1.88l-.46,2.65c-.02.14.08.26.22.26h.31v2.89c0,.26.21.48.48.48s.48-.21.48-.48v-2.89h.21v2.89c0,.26.21.48.48.48s.48-.21.48-.48v-2.89h.31c.14,0,.24-.12.22-.26l-.46-2.65c.31.86.67,1.87.68,1.88.08.21.3.31.51.24.21-.08.31-.3.24-.51h0Z"/>
        </g>
        <path class="cls-2" d="M8.04,12.86c-.18,0-.32-.14-.32-.32V2.45c0-.18.14-.32.32-.32s.32.14.32.32v10.09c0,.18-.14.32-.32.32Z"/>
      </g>
    </g>
  </g>
</svg>